%TF.GenerationSoftware,KiCad,Pcbnew,(5.1.7)-1*%
%TF.CreationDate,2020-10-25T17:01:22-04:00*%
%TF.ProjectId,keyboard_test,6b657962-6f61-4726-945f-746573742e6b,rev?*%
%TF.SameCoordinates,Original*%
%TF.FileFunction,Paste,Top*%
%TF.FilePolarity,Positive*%
%FSLAX46Y46*%
G04 Gerber Fmt 4.6, Leading zero omitted, Abs format (unit mm)*
G04 Created by KiCad (PCBNEW (5.1.7)-1) date 2020-10-25 17:01:22*
%MOMM*%
%LPD*%
G01*
G04 APERTURE LIST*
%ADD10R,2.100000X1.800000*%
%ADD11R,0.500000X2.250000*%
%ADD12R,0.550000X1.500000*%
%ADD13R,1.500000X0.550000*%
%ADD14R,1.100000X1.800000*%
G04 APERTURE END LIST*
D10*
%TO.C,Y1*%
X36279750Y-77858000D03*
X33379750Y-77858000D03*
X33379750Y-75558000D03*
X36279750Y-75558000D03*
%TD*%
D11*
%TO.C,USB1*%
X35731250Y-52125000D03*
X34931250Y-52125000D03*
X34131250Y-52125000D03*
X33331250Y-52125000D03*
X32531250Y-52125000D03*
%TD*%
D12*
%TO.C,U1*%
X31020250Y-61737000D03*
X31820250Y-61737000D03*
X32620250Y-61737000D03*
X33420250Y-61737000D03*
X34220250Y-61737000D03*
X35020250Y-61737000D03*
X35820250Y-61737000D03*
X36620250Y-61737000D03*
X37420250Y-61737000D03*
X38220250Y-61737000D03*
X39020250Y-61737000D03*
D13*
X40720250Y-63437000D03*
X40720250Y-64237000D03*
X40720250Y-65037000D03*
X40720250Y-65837000D03*
X40720250Y-66637000D03*
X40720250Y-67437000D03*
X40720250Y-68237000D03*
X40720250Y-69037000D03*
X40720250Y-69837000D03*
X40720250Y-70637000D03*
X40720250Y-71437000D03*
D12*
X39020250Y-73137000D03*
X38220250Y-73137000D03*
X37420250Y-73137000D03*
X36620250Y-73137000D03*
X35820250Y-73137000D03*
X35020250Y-73137000D03*
X34220250Y-73137000D03*
X33420250Y-73137000D03*
X32620250Y-73137000D03*
X31820250Y-73137000D03*
X31020250Y-73137000D03*
D13*
X29320250Y-71437000D03*
X29320250Y-70637000D03*
X29320250Y-69837000D03*
X29320250Y-69037000D03*
X29320250Y-68237000D03*
X29320250Y-67437000D03*
X29320250Y-66637000D03*
X29320250Y-65837000D03*
X29320250Y-65037000D03*
X29320250Y-64237000D03*
X29320250Y-63437000D03*
%TD*%
D14*
%TO.C,SW1*%
X23677000Y-72719000D03*
X27377000Y-78919000D03*
X27377000Y-72719000D03*
X23677000Y-78919000D03*
%TD*%
%TO.C,R4*%
G36*
G01*
X43678001Y-61076000D02*
X42427999Y-61076000D01*
G75*
G02*
X42178000Y-60826001I0J249999D01*
G01*
X42178000Y-60200999D01*
G75*
G02*
X42427999Y-59951000I249999J0D01*
G01*
X43678001Y-59951000D01*
G75*
G02*
X43928000Y-60200999I0J-249999D01*
G01*
X43928000Y-60826001D01*
G75*
G02*
X43678001Y-61076000I-249999J0D01*
G01*
G37*
G36*
G01*
X43678001Y-64001000D02*
X42427999Y-64001000D01*
G75*
G02*
X42178000Y-63751001I0J249999D01*
G01*
X42178000Y-63125999D01*
G75*
G02*
X42427999Y-62876000I249999J0D01*
G01*
X43678001Y-62876000D01*
G75*
G02*
X43928000Y-63125999I0J-249999D01*
G01*
X43928000Y-63751001D01*
G75*
G02*
X43678001Y-64001000I-249999J0D01*
G01*
G37*
%TD*%
%TO.C,R3*%
G36*
G01*
X35061999Y-56780000D02*
X36312001Y-56780000D01*
G75*
G02*
X36562000Y-57029999I0J-249999D01*
G01*
X36562000Y-57655001D01*
G75*
G02*
X36312001Y-57905000I-249999J0D01*
G01*
X35061999Y-57905000D01*
G75*
G02*
X34812000Y-57655001I0J249999D01*
G01*
X34812000Y-57029999D01*
G75*
G02*
X35061999Y-56780000I249999J0D01*
G01*
G37*
G36*
G01*
X35061999Y-53855000D02*
X36312001Y-53855000D01*
G75*
G02*
X36562000Y-54104999I0J-249999D01*
G01*
X36562000Y-54730001D01*
G75*
G02*
X36312001Y-54980000I-249999J0D01*
G01*
X35061999Y-54980000D01*
G75*
G02*
X34812000Y-54730001I0J249999D01*
G01*
X34812000Y-54104999D01*
G75*
G02*
X35061999Y-53855000I249999J0D01*
G01*
G37*
%TD*%
%TO.C,R2*%
G36*
G01*
X34026001Y-54980000D02*
X32775999Y-54980000D01*
G75*
G02*
X32526000Y-54730001I0J249999D01*
G01*
X32526000Y-54104999D01*
G75*
G02*
X32775999Y-53855000I249999J0D01*
G01*
X34026001Y-53855000D01*
G75*
G02*
X34276000Y-54104999I0J-249999D01*
G01*
X34276000Y-54730001D01*
G75*
G02*
X34026001Y-54980000I-249999J0D01*
G01*
G37*
G36*
G01*
X34026001Y-57905000D02*
X32775999Y-57905000D01*
G75*
G02*
X32526000Y-57655001I0J249999D01*
G01*
X32526000Y-57029999D01*
G75*
G02*
X32775999Y-56780000I249999J0D01*
G01*
X34026001Y-56780000D01*
G75*
G02*
X34276000Y-57029999I0J-249999D01*
G01*
X34276000Y-57655001D01*
G75*
G02*
X34026001Y-57905000I-249999J0D01*
G01*
G37*
%TD*%
%TO.C,R1*%
G36*
G01*
X26808000Y-70602001D02*
X26808000Y-69351999D01*
G75*
G02*
X27057999Y-69102000I249999J0D01*
G01*
X27683001Y-69102000D01*
G75*
G02*
X27933000Y-69351999I0J-249999D01*
G01*
X27933000Y-70602001D01*
G75*
G02*
X27683001Y-70852000I-249999J0D01*
G01*
X27057999Y-70852000D01*
G75*
G02*
X26808000Y-70602001I0J249999D01*
G01*
G37*
G36*
G01*
X23883000Y-70602001D02*
X23883000Y-69351999D01*
G75*
G02*
X24132999Y-69102000I249999J0D01*
G01*
X24758001Y-69102000D01*
G75*
G02*
X25008000Y-69351999I0J-249999D01*
G01*
X25008000Y-70602001D01*
G75*
G02*
X24758001Y-70852000I-249999J0D01*
G01*
X24132999Y-70852000D01*
G75*
G02*
X23883000Y-70602001I0J249999D01*
G01*
G37*
%TD*%
%TO.C,F1*%
G36*
G01*
X38598000Y-55105000D02*
X37348000Y-55105000D01*
G75*
G02*
X37098000Y-54855000I0J250000D01*
G01*
X37098000Y-54105000D01*
G75*
G02*
X37348000Y-53855000I250000J0D01*
G01*
X38598000Y-53855000D01*
G75*
G02*
X38848000Y-54105000I0J-250000D01*
G01*
X38848000Y-54855000D01*
G75*
G02*
X38598000Y-55105000I-250000J0D01*
G01*
G37*
G36*
G01*
X38598000Y-57905000D02*
X37348000Y-57905000D01*
G75*
G02*
X37098000Y-57655000I0J250000D01*
G01*
X37098000Y-56905000D01*
G75*
G02*
X37348000Y-56655000I250000J0D01*
G01*
X38598000Y-56655000D01*
G75*
G02*
X38848000Y-56905000I0J-250000D01*
G01*
X38848000Y-57655000D01*
G75*
G02*
X38598000Y-57905000I-250000J0D01*
G01*
G37*
%TD*%
%TO.C,C7*%
G36*
G01*
X24976250Y-66786999D02*
X24976250Y-68087001D01*
G75*
G02*
X24726251Y-68337000I-249999J0D01*
G01*
X24076249Y-68337000D01*
G75*
G02*
X23826250Y-68087001I0J249999D01*
G01*
X23826250Y-66786999D01*
G75*
G02*
X24076249Y-66537000I249999J0D01*
G01*
X24726251Y-66537000D01*
G75*
G02*
X24976250Y-66786999I0J-249999D01*
G01*
G37*
G36*
G01*
X27926250Y-66786999D02*
X27926250Y-68087001D01*
G75*
G02*
X27676251Y-68337000I-249999J0D01*
G01*
X27026249Y-68337000D01*
G75*
G02*
X26776250Y-68087001I0J249999D01*
G01*
X26776250Y-66786999D01*
G75*
G02*
X27026249Y-66537000I249999J0D01*
G01*
X27676251Y-66537000D01*
G75*
G02*
X27926250Y-66786999I0J-249999D01*
G01*
G37*
%TD*%
%TO.C,C6*%
G36*
G01*
X29861749Y-77608000D02*
X31161751Y-77608000D01*
G75*
G02*
X31411750Y-77857999I0J-249999D01*
G01*
X31411750Y-78508001D01*
G75*
G02*
X31161751Y-78758000I-249999J0D01*
G01*
X29861749Y-78758000D01*
G75*
G02*
X29611750Y-78508001I0J249999D01*
G01*
X29611750Y-77857999D01*
G75*
G02*
X29861749Y-77608000I249999J0D01*
G01*
G37*
G36*
G01*
X29861749Y-74658000D02*
X31161751Y-74658000D01*
G75*
G02*
X31411750Y-74907999I0J-249999D01*
G01*
X31411750Y-75558001D01*
G75*
G02*
X31161751Y-75808000I-249999J0D01*
G01*
X29861749Y-75808000D01*
G75*
G02*
X29611750Y-75558001I0J249999D01*
G01*
X29611750Y-74907999D01*
G75*
G02*
X29861749Y-74658000I249999J0D01*
G01*
G37*
%TD*%
%TO.C,C5*%
G36*
G01*
X39797751Y-75808000D02*
X38497749Y-75808000D01*
G75*
G02*
X38247750Y-75558001I0J249999D01*
G01*
X38247750Y-74907999D01*
G75*
G02*
X38497749Y-74658000I249999J0D01*
G01*
X39797751Y-74658000D01*
G75*
G02*
X40047750Y-74907999I0J-249999D01*
G01*
X40047750Y-75558001D01*
G75*
G02*
X39797751Y-75808000I-249999J0D01*
G01*
G37*
G36*
G01*
X39797751Y-78758000D02*
X38497749Y-78758000D01*
G75*
G02*
X38247750Y-78508001I0J249999D01*
G01*
X38247750Y-77857999D01*
G75*
G02*
X38497749Y-77608000I249999J0D01*
G01*
X39797751Y-77608000D01*
G75*
G02*
X40047750Y-77857999I0J-249999D01*
G01*
X40047750Y-78508001D01*
G75*
G02*
X39797751Y-78758000I-249999J0D01*
G01*
G37*
%TD*%
%TO.C,C4*%
G36*
G01*
X28691000Y-58912999D02*
X28691000Y-60213001D01*
G75*
G02*
X28441001Y-60463000I-249999J0D01*
G01*
X27790999Y-60463000D01*
G75*
G02*
X27541000Y-60213001I0J249999D01*
G01*
X27541000Y-58912999D01*
G75*
G02*
X27790999Y-58663000I249999J0D01*
G01*
X28441001Y-58663000D01*
G75*
G02*
X28691000Y-58912999I0J-249999D01*
G01*
G37*
G36*
G01*
X31641000Y-58912999D02*
X31641000Y-60213001D01*
G75*
G02*
X31391001Y-60463000I-249999J0D01*
G01*
X30740999Y-60463000D01*
G75*
G02*
X30491000Y-60213001I0J249999D01*
G01*
X30491000Y-58912999D01*
G75*
G02*
X30740999Y-58663000I249999J0D01*
G01*
X31391001Y-58663000D01*
G75*
G02*
X31641000Y-58912999I0J-249999D01*
G01*
G37*
%TD*%
%TO.C,C3*%
G36*
G01*
X42402999Y-73036000D02*
X43703001Y-73036000D01*
G75*
G02*
X43953000Y-73285999I0J-249999D01*
G01*
X43953000Y-73936001D01*
G75*
G02*
X43703001Y-74186000I-249999J0D01*
G01*
X42402999Y-74186000D01*
G75*
G02*
X42153000Y-73936001I0J249999D01*
G01*
X42153000Y-73285999D01*
G75*
G02*
X42402999Y-73036000I249999J0D01*
G01*
G37*
G36*
G01*
X42402999Y-70086000D02*
X43703001Y-70086000D01*
G75*
G02*
X43953000Y-70335999I0J-249999D01*
G01*
X43953000Y-70986001D01*
G75*
G02*
X43703001Y-71236000I-249999J0D01*
G01*
X42402999Y-71236000D01*
G75*
G02*
X42153000Y-70986001I0J249999D01*
G01*
X42153000Y-70335999D01*
G75*
G02*
X42402999Y-70086000I249999J0D01*
G01*
G37*
%TD*%
%TO.C,C2*%
G36*
G01*
X24976250Y-63611999D02*
X24976250Y-64912001D01*
G75*
G02*
X24726251Y-65162000I-249999J0D01*
G01*
X24076249Y-65162000D01*
G75*
G02*
X23826250Y-64912001I0J249999D01*
G01*
X23826250Y-63611999D01*
G75*
G02*
X24076249Y-63362000I249999J0D01*
G01*
X24726251Y-63362000D01*
G75*
G02*
X24976250Y-63611999I0J-249999D01*
G01*
G37*
G36*
G01*
X27926250Y-63611999D02*
X27926250Y-64912001D01*
G75*
G02*
X27676251Y-65162000I-249999J0D01*
G01*
X27026249Y-65162000D01*
G75*
G02*
X26776250Y-64912001I0J249999D01*
G01*
X26776250Y-63611999D01*
G75*
G02*
X27026249Y-63362000I249999J0D01*
G01*
X27676251Y-63362000D01*
G75*
G02*
X27926250Y-63611999I0J-249999D01*
G01*
G37*
%TD*%
%TO.C,C1*%
G36*
G01*
X40397000Y-60086001D02*
X40397000Y-58785999D01*
G75*
G02*
X40646999Y-58536000I249999J0D01*
G01*
X41297001Y-58536000D01*
G75*
G02*
X41547000Y-58785999I0J-249999D01*
G01*
X41547000Y-60086001D01*
G75*
G02*
X41297001Y-60336000I-249999J0D01*
G01*
X40646999Y-60336000D01*
G75*
G02*
X40397000Y-60086001I0J249999D01*
G01*
G37*
G36*
G01*
X37447000Y-60086001D02*
X37447000Y-58785999D01*
G75*
G02*
X37696999Y-58536000I249999J0D01*
G01*
X38347001Y-58536000D01*
G75*
G02*
X38597000Y-58785999I0J-249999D01*
G01*
X38597000Y-60086001D01*
G75*
G02*
X38347001Y-60336000I-249999J0D01*
G01*
X37696999Y-60336000D01*
G75*
G02*
X37447000Y-60086001I0J249999D01*
G01*
G37*
%TD*%
M02*
