%TF.GenerationSoftware,KiCad,Pcbnew,(5.1.7)-1*%
%TF.CreationDate,2020-10-25T17:01:22-04:00*%
%TF.ProjectId,keyboard_test,6b657962-6f61-4726-945f-746573742e6b,rev?*%
%TF.SameCoordinates,Original*%
%TF.FileFunction,Legend,Bot*%
%TF.FilePolarity,Positive*%
%FSLAX46Y46*%
G04 Gerber Fmt 4.6, Leading zero omitted, Abs format (unit mm)*
G04 Created by KiCad (PCBNEW (5.1.7)-1) date 2020-10-25 17:01:22*
%MOMM*%
%LPD*%
G01*
G04 APERTURE LIST*
%ADD10C,0.120000*%
%ADD11C,0.150000*%
G04 APERTURE END LIST*
D10*
%TO.C,D4*%
X83550000Y-74481250D02*
X81550000Y-74481250D01*
X81550000Y-74481250D02*
X81550000Y-70581250D01*
X83550000Y-74481250D02*
X83550000Y-70581250D01*
%TO.C,D3*%
X64500000Y-74481250D02*
X62500000Y-74481250D01*
X62500000Y-74481250D02*
X62500000Y-70581250D01*
X64500000Y-74481250D02*
X64500000Y-70581250D01*
%TO.C,D2*%
X83550000Y-55431250D02*
X81550000Y-55431250D01*
X81550000Y-55431250D02*
X81550000Y-51531250D01*
X83550000Y-55431250D02*
X83550000Y-51531250D01*
%TO.C,D1*%
X64500000Y-55431250D02*
X62500000Y-55431250D01*
X62500000Y-55431250D02*
X62500000Y-51531250D01*
X64500000Y-55431250D02*
X64500000Y-51531250D01*
%TO.C,D4*%
D11*
X81224380Y-71651904D02*
X80224380Y-71651904D01*
X80224380Y-71890000D01*
X80272000Y-72032857D01*
X80367238Y-72128095D01*
X80462476Y-72175714D01*
X80652952Y-72223333D01*
X80795809Y-72223333D01*
X80986285Y-72175714D01*
X81081523Y-72128095D01*
X81176761Y-72032857D01*
X81224380Y-71890000D01*
X81224380Y-71651904D01*
X80557714Y-73080476D02*
X81224380Y-73080476D01*
X80176761Y-72842380D02*
X80891047Y-72604285D01*
X80891047Y-73223333D01*
%TO.C,D3*%
X65952380Y-71493154D02*
X64952380Y-71493154D01*
X64952380Y-71731250D01*
X65000000Y-71874107D01*
X65095238Y-71969345D01*
X65190476Y-72016964D01*
X65380952Y-72064583D01*
X65523809Y-72064583D01*
X65714285Y-72016964D01*
X65809523Y-71969345D01*
X65904761Y-71874107D01*
X65952380Y-71731250D01*
X65952380Y-71493154D01*
X64952380Y-72397916D02*
X64952380Y-73016964D01*
X65333333Y-72683630D01*
X65333333Y-72826488D01*
X65380952Y-72921726D01*
X65428571Y-72969345D01*
X65523809Y-73016964D01*
X65761904Y-73016964D01*
X65857142Y-72969345D01*
X65904761Y-72921726D01*
X65952380Y-72826488D01*
X65952380Y-72540773D01*
X65904761Y-72445535D01*
X65857142Y-72397916D01*
%TO.C,D2*%
X81097380Y-52601904D02*
X80097380Y-52601904D01*
X80097380Y-52840000D01*
X80145000Y-52982857D01*
X80240238Y-53078095D01*
X80335476Y-53125714D01*
X80525952Y-53173333D01*
X80668809Y-53173333D01*
X80859285Y-53125714D01*
X80954523Y-53078095D01*
X81049761Y-52982857D01*
X81097380Y-52840000D01*
X81097380Y-52601904D01*
X80192619Y-53554285D02*
X80145000Y-53601904D01*
X80097380Y-53697142D01*
X80097380Y-53935238D01*
X80145000Y-54030476D01*
X80192619Y-54078095D01*
X80287857Y-54125714D01*
X80383095Y-54125714D01*
X80525952Y-54078095D01*
X81097380Y-53506666D01*
X81097380Y-54125714D01*
%TO.C,D1*%
X65952380Y-52443154D02*
X64952380Y-52443154D01*
X64952380Y-52681250D01*
X65000000Y-52824107D01*
X65095238Y-52919345D01*
X65190476Y-52966964D01*
X65380952Y-53014583D01*
X65523809Y-53014583D01*
X65714285Y-52966964D01*
X65809523Y-52919345D01*
X65904761Y-52824107D01*
X65952380Y-52681250D01*
X65952380Y-52443154D01*
X65952380Y-53966964D02*
X65952380Y-53395535D01*
X65952380Y-53681250D02*
X64952380Y-53681250D01*
X65095238Y-53586011D01*
X65190476Y-53490773D01*
X65238095Y-53395535D01*
%TD*%
M02*
