G04 #@! TF.GenerationSoftware,KiCad,Pcbnew,(5.1.7)-1*
G04 #@! TF.CreationDate,2020-11-03T00:38:03-05:00*
G04 #@! TF.ProjectId,keyboard_test,6b657962-6f61-4726-945f-746573742e6b,rev?*
G04 #@! TF.SameCoordinates,Original*
G04 #@! TF.FileFunction,Copper,L1,Top*
G04 #@! TF.FilePolarity,Positive*
%FSLAX46Y46*%
G04 Gerber Fmt 4.6, Leading zero omitted, Abs format (unit mm)*
G04 Created by KiCad (PCBNEW (5.1.7)-1) date 2020-11-03 00:38:03*
%MOMM*%
%LPD*%
G01*
G04 APERTURE LIST*
G04 #@! TA.AperFunction,NonConductor*
%ADD10C,0.100000*%
G04 #@! TD*
G04 #@! TA.AperFunction,SMDPad,CuDef*
%ADD11R,2.100000X1.800000*%
G04 #@! TD*
G04 #@! TA.AperFunction,ComponentPad*
%ADD12O,1.700000X2.700000*%
G04 #@! TD*
G04 #@! TA.AperFunction,SMDPad,CuDef*
%ADD13R,0.500000X2.250000*%
G04 #@! TD*
G04 #@! TA.AperFunction,SMDPad,CuDef*
%ADD14R,0.550000X1.500000*%
G04 #@! TD*
G04 #@! TA.AperFunction,SMDPad,CuDef*
%ADD15R,1.500000X0.550000*%
G04 #@! TD*
G04 #@! TA.AperFunction,SMDPad,CuDef*
%ADD16R,1.100000X1.800000*%
G04 #@! TD*
G04 #@! TA.AperFunction,ComponentPad*
%ADD17C,2.250000*%
G04 #@! TD*
G04 #@! TA.AperFunction,ViaPad*
%ADD18C,0.800000*%
G04 #@! TD*
G04 #@! TA.AperFunction,Conductor*
%ADD19C,0.381000*%
G04 #@! TD*
G04 #@! TA.AperFunction,Conductor*
%ADD20C,0.254000*%
G04 #@! TD*
G04 #@! TA.AperFunction,Conductor*
%ADD21C,0.100000*%
G04 #@! TD*
G04 APERTURE END LIST*
D10*
G36*
X27940000Y-57277000D02*
G01*
X24511000Y-57277000D01*
X24511000Y-47498000D01*
X27940000Y-47498000D01*
X27940000Y-57277000D01*
G37*
X27940000Y-57277000D02*
X24511000Y-57277000D01*
X24511000Y-47498000D01*
X27940000Y-47498000D01*
X27940000Y-57277000D01*
D11*
X36279750Y-78747000D03*
X33379750Y-78747000D03*
X33379750Y-76447000D03*
X36279750Y-76447000D03*
D12*
X37781250Y-47625000D03*
X30481250Y-47625000D03*
X30481250Y-52125000D03*
X37781250Y-52125000D03*
D13*
X35731250Y-52125000D03*
X34931250Y-52125000D03*
X34131250Y-52125000D03*
X33331250Y-52125000D03*
X32531250Y-52125000D03*
D14*
X31020250Y-61737000D03*
X31820250Y-61737000D03*
X32620250Y-61737000D03*
X33420250Y-61737000D03*
X34220250Y-61737000D03*
X35020250Y-61737000D03*
X35820250Y-61737000D03*
X36620250Y-61737000D03*
X37420250Y-61737000D03*
X38220250Y-61737000D03*
X39020250Y-61737000D03*
D15*
X40720250Y-63437000D03*
X40720250Y-64237000D03*
X40720250Y-65037000D03*
X40720250Y-65837000D03*
X40720250Y-66637000D03*
X40720250Y-67437000D03*
X40720250Y-68237000D03*
X40720250Y-69037000D03*
X40720250Y-69837000D03*
X40720250Y-70637000D03*
X40720250Y-71437000D03*
D14*
X39020250Y-73137000D03*
X38220250Y-73137000D03*
X37420250Y-73137000D03*
X36620250Y-73137000D03*
X35820250Y-73137000D03*
X35020250Y-73137000D03*
X34220250Y-73137000D03*
X33420250Y-73137000D03*
X32620250Y-73137000D03*
X31820250Y-73137000D03*
X31020250Y-73137000D03*
D15*
X29320250Y-71437000D03*
X29320250Y-70637000D03*
X29320250Y-69837000D03*
X29320250Y-69037000D03*
X29320250Y-68237000D03*
X29320250Y-67437000D03*
X29320250Y-66637000D03*
X29320250Y-65837000D03*
X29320250Y-65037000D03*
X29320250Y-64237000D03*
X29320250Y-63437000D03*
D16*
X23677000Y-72719000D03*
X27377000Y-78919000D03*
X27377000Y-72719000D03*
X23677000Y-78919000D03*
G04 #@! TA.AperFunction,SMDPad,CuDef*
G36*
G01*
X43678002Y-61076000D02*
X42427998Y-61076000D01*
G75*
G02*
X42178000Y-60826002I0J249998D01*
G01*
X42178000Y-60200998D01*
G75*
G02*
X42427998Y-59951000I249998J0D01*
G01*
X43678002Y-59951000D01*
G75*
G02*
X43928000Y-60200998I0J-249998D01*
G01*
X43928000Y-60826002D01*
G75*
G02*
X43678002Y-61076000I-249998J0D01*
G01*
G37*
G04 #@! TD.AperFunction*
G04 #@! TA.AperFunction,SMDPad,CuDef*
G36*
G01*
X43678002Y-64001000D02*
X42427998Y-64001000D01*
G75*
G02*
X42178000Y-63751002I0J249998D01*
G01*
X42178000Y-63125998D01*
G75*
G02*
X42427998Y-62876000I249998J0D01*
G01*
X43678002Y-62876000D01*
G75*
G02*
X43928000Y-63125998I0J-249998D01*
G01*
X43928000Y-63751002D01*
G75*
G02*
X43678002Y-64001000I-249998J0D01*
G01*
G37*
G04 #@! TD.AperFunction*
G04 #@! TA.AperFunction,SMDPad,CuDef*
G36*
G01*
X35061998Y-56780000D02*
X36312002Y-56780000D01*
G75*
G02*
X36562000Y-57029998I0J-249998D01*
G01*
X36562000Y-57655002D01*
G75*
G02*
X36312002Y-57905000I-249998J0D01*
G01*
X35061998Y-57905000D01*
G75*
G02*
X34812000Y-57655002I0J249998D01*
G01*
X34812000Y-57029998D01*
G75*
G02*
X35061998Y-56780000I249998J0D01*
G01*
G37*
G04 #@! TD.AperFunction*
G04 #@! TA.AperFunction,SMDPad,CuDef*
G36*
G01*
X35061998Y-53855000D02*
X36312002Y-53855000D01*
G75*
G02*
X36562000Y-54104998I0J-249998D01*
G01*
X36562000Y-54730002D01*
G75*
G02*
X36312002Y-54980000I-249998J0D01*
G01*
X35061998Y-54980000D01*
G75*
G02*
X34812000Y-54730002I0J249998D01*
G01*
X34812000Y-54104998D01*
G75*
G02*
X35061998Y-53855000I249998J0D01*
G01*
G37*
G04 #@! TD.AperFunction*
G04 #@! TA.AperFunction,SMDPad,CuDef*
G36*
G01*
X34026002Y-54980000D02*
X32775998Y-54980000D01*
G75*
G02*
X32526000Y-54730002I0J249998D01*
G01*
X32526000Y-54104998D01*
G75*
G02*
X32775998Y-53855000I249998J0D01*
G01*
X34026002Y-53855000D01*
G75*
G02*
X34276000Y-54104998I0J-249998D01*
G01*
X34276000Y-54730002D01*
G75*
G02*
X34026002Y-54980000I-249998J0D01*
G01*
G37*
G04 #@! TD.AperFunction*
G04 #@! TA.AperFunction,SMDPad,CuDef*
G36*
G01*
X34026002Y-57905000D02*
X32775998Y-57905000D01*
G75*
G02*
X32526000Y-57655002I0J249998D01*
G01*
X32526000Y-57029998D01*
G75*
G02*
X32775998Y-56780000I249998J0D01*
G01*
X34026002Y-56780000D01*
G75*
G02*
X34276000Y-57029998I0J-249998D01*
G01*
X34276000Y-57655002D01*
G75*
G02*
X34026002Y-57905000I-249998J0D01*
G01*
G37*
G04 #@! TD.AperFunction*
G04 #@! TA.AperFunction,SMDPad,CuDef*
G36*
G01*
X26808000Y-70602002D02*
X26808000Y-69351998D01*
G75*
G02*
X27057998Y-69102000I249998J0D01*
G01*
X27683002Y-69102000D01*
G75*
G02*
X27933000Y-69351998I0J-249998D01*
G01*
X27933000Y-70602002D01*
G75*
G02*
X27683002Y-70852000I-249998J0D01*
G01*
X27057998Y-70852000D01*
G75*
G02*
X26808000Y-70602002I0J249998D01*
G01*
G37*
G04 #@! TD.AperFunction*
G04 #@! TA.AperFunction,SMDPad,CuDef*
G36*
G01*
X23883000Y-70602002D02*
X23883000Y-69351998D01*
G75*
G02*
X24132998Y-69102000I249998J0D01*
G01*
X24758002Y-69102000D01*
G75*
G02*
X25008000Y-69351998I0J-249998D01*
G01*
X25008000Y-70602002D01*
G75*
G02*
X24758002Y-70852000I-249998J0D01*
G01*
X24132998Y-70852000D01*
G75*
G02*
X23883000Y-70602002I0J249998D01*
G01*
G37*
G04 #@! TD.AperFunction*
D17*
X72112500Y-70612500D03*
G04 #@! TA.AperFunction,ComponentPad*
G36*
G01*
X70051188Y-72909850D02*
X70051183Y-72909845D01*
G75*
G02*
X69965155Y-71321183I751317J837345D01*
G01*
X71275157Y-69861183D01*
G75*
G02*
X72863819Y-69775155I837345J-751317D01*
G01*
X72863819Y-69775155D01*
G75*
G02*
X72949847Y-71363817I-751317J-837345D01*
G01*
X71639845Y-72823817D01*
G75*
G02*
X70051183Y-72909845I-837345J751317D01*
G01*
G37*
G04 #@! TD.AperFunction*
X77152500Y-69532500D03*
G04 #@! TA.AperFunction,ComponentPad*
G36*
G01*
X77035983Y-71234895D02*
X77035097Y-71234834D01*
G75*
G02*
X75990166Y-70035097I77403J1122334D01*
G01*
X76030166Y-69455097D01*
G75*
G02*
X77229903Y-68410166I1122334J-77403D01*
G01*
X77229903Y-68410166D01*
G75*
G02*
X78274834Y-69609903I-77403J-1122334D01*
G01*
X78234834Y-70189903D01*
G75*
G02*
X77035097Y-71234834I-1122334J77403D01*
G01*
G37*
G04 #@! TD.AperFunction*
X53062500Y-70612500D03*
G04 #@! TA.AperFunction,ComponentPad*
G36*
G01*
X51001188Y-72909850D02*
X51001183Y-72909845D01*
G75*
G02*
X50915155Y-71321183I751317J837345D01*
G01*
X52225157Y-69861183D01*
G75*
G02*
X53813819Y-69775155I837345J-751317D01*
G01*
X53813819Y-69775155D01*
G75*
G02*
X53899847Y-71363817I-751317J-837345D01*
G01*
X52589845Y-72823817D01*
G75*
G02*
X51001183Y-72909845I-837345J751317D01*
G01*
G37*
G04 #@! TD.AperFunction*
X58102500Y-69532500D03*
G04 #@! TA.AperFunction,ComponentPad*
G36*
G01*
X57985983Y-71234895D02*
X57985097Y-71234834D01*
G75*
G02*
X56940166Y-70035097I77403J1122334D01*
G01*
X56980166Y-69455097D01*
G75*
G02*
X58179903Y-68410166I1122334J-77403D01*
G01*
X58179903Y-68410166D01*
G75*
G02*
X59224834Y-69609903I-77403J-1122334D01*
G01*
X59184834Y-70189903D01*
G75*
G02*
X57985097Y-71234834I-1122334J77403D01*
G01*
G37*
G04 #@! TD.AperFunction*
X72112500Y-51562500D03*
G04 #@! TA.AperFunction,ComponentPad*
G36*
G01*
X70051188Y-53859850D02*
X70051183Y-53859845D01*
G75*
G02*
X69965155Y-52271183I751317J837345D01*
G01*
X71275157Y-50811183D01*
G75*
G02*
X72863819Y-50725155I837345J-751317D01*
G01*
X72863819Y-50725155D01*
G75*
G02*
X72949847Y-52313817I-751317J-837345D01*
G01*
X71639845Y-53773817D01*
G75*
G02*
X70051183Y-53859845I-837345J751317D01*
G01*
G37*
G04 #@! TD.AperFunction*
X77152500Y-50482500D03*
G04 #@! TA.AperFunction,ComponentPad*
G36*
G01*
X77035983Y-52184895D02*
X77035097Y-52184834D01*
G75*
G02*
X75990166Y-50985097I77403J1122334D01*
G01*
X76030166Y-50405097D01*
G75*
G02*
X77229903Y-49360166I1122334J-77403D01*
G01*
X77229903Y-49360166D01*
G75*
G02*
X78274834Y-50559903I-77403J-1122334D01*
G01*
X78234834Y-51139903D01*
G75*
G02*
X77035097Y-52184834I-1122334J77403D01*
G01*
G37*
G04 #@! TD.AperFunction*
X53062500Y-51562500D03*
G04 #@! TA.AperFunction,ComponentPad*
G36*
G01*
X51001188Y-53859850D02*
X51001183Y-53859845D01*
G75*
G02*
X50915155Y-52271183I751317J837345D01*
G01*
X52225157Y-50811183D01*
G75*
G02*
X53813819Y-50725155I837345J-751317D01*
G01*
X53813819Y-50725155D01*
G75*
G02*
X53899847Y-52313817I-751317J-837345D01*
G01*
X52589845Y-53773817D01*
G75*
G02*
X51001183Y-53859845I-837345J751317D01*
G01*
G37*
G04 #@! TD.AperFunction*
X58102500Y-50482500D03*
G04 #@! TA.AperFunction,ComponentPad*
G36*
G01*
X57985983Y-52184895D02*
X57985097Y-52184834D01*
G75*
G02*
X56940166Y-50985097I77403J1122334D01*
G01*
X56980166Y-50405097D01*
G75*
G02*
X58179903Y-49360166I1122334J-77403D01*
G01*
X58179903Y-49360166D01*
G75*
G02*
X59224834Y-50559903I-77403J-1122334D01*
G01*
X59184834Y-51139903D01*
G75*
G02*
X57985097Y-52184834I-1122334J77403D01*
G01*
G37*
G04 #@! TD.AperFunction*
G04 #@! TA.AperFunction,SMDPad,CuDef*
G36*
G01*
X38598000Y-55105000D02*
X37348000Y-55105000D01*
G75*
G02*
X37098000Y-54855000I0J250000D01*
G01*
X37098000Y-54105000D01*
G75*
G02*
X37348000Y-53855000I250000J0D01*
G01*
X38598000Y-53855000D01*
G75*
G02*
X38848000Y-54105000I0J-250000D01*
G01*
X38848000Y-54855000D01*
G75*
G02*
X38598000Y-55105000I-250000J0D01*
G01*
G37*
G04 #@! TD.AperFunction*
G04 #@! TA.AperFunction,SMDPad,CuDef*
G36*
G01*
X38598000Y-57905000D02*
X37348000Y-57905000D01*
G75*
G02*
X37098000Y-57655000I0J250000D01*
G01*
X37098000Y-56905000D01*
G75*
G02*
X37348000Y-56655000I250000J0D01*
G01*
X38598000Y-56655000D01*
G75*
G02*
X38848000Y-56905000I0J-250000D01*
G01*
X38848000Y-57655000D01*
G75*
G02*
X38598000Y-57905000I-250000J0D01*
G01*
G37*
G04 #@! TD.AperFunction*
G04 #@! TA.AperFunction,SMDPad,CuDef*
G36*
G01*
X24976250Y-66786999D02*
X24976250Y-68087001D01*
G75*
G02*
X24726251Y-68337000I-249999J0D01*
G01*
X24076249Y-68337000D01*
G75*
G02*
X23826250Y-68087001I0J249999D01*
G01*
X23826250Y-66786999D01*
G75*
G02*
X24076249Y-66537000I249999J0D01*
G01*
X24726251Y-66537000D01*
G75*
G02*
X24976250Y-66786999I0J-249999D01*
G01*
G37*
G04 #@! TD.AperFunction*
G04 #@! TA.AperFunction,SMDPad,CuDef*
G36*
G01*
X27926250Y-66786999D02*
X27926250Y-68087001D01*
G75*
G02*
X27676251Y-68337000I-249999J0D01*
G01*
X27026249Y-68337000D01*
G75*
G02*
X26776250Y-68087001I0J249999D01*
G01*
X26776250Y-66786999D01*
G75*
G02*
X27026249Y-66537000I249999J0D01*
G01*
X27676251Y-66537000D01*
G75*
G02*
X27926250Y-66786999I0J-249999D01*
G01*
G37*
G04 #@! TD.AperFunction*
G04 #@! TA.AperFunction,SMDPad,CuDef*
G36*
G01*
X31161751Y-76697000D02*
X29861749Y-76697000D01*
G75*
G02*
X29611750Y-76447001I0J249999D01*
G01*
X29611750Y-75796999D01*
G75*
G02*
X29861749Y-75547000I249999J0D01*
G01*
X31161751Y-75547000D01*
G75*
G02*
X31411750Y-75796999I0J-249999D01*
G01*
X31411750Y-76447001D01*
G75*
G02*
X31161751Y-76697000I-249999J0D01*
G01*
G37*
G04 #@! TD.AperFunction*
G04 #@! TA.AperFunction,SMDPad,CuDef*
G36*
G01*
X31161751Y-79647000D02*
X29861749Y-79647000D01*
G75*
G02*
X29611750Y-79397001I0J249999D01*
G01*
X29611750Y-78746999D01*
G75*
G02*
X29861749Y-78497000I249999J0D01*
G01*
X31161751Y-78497000D01*
G75*
G02*
X31411750Y-78746999I0J-249999D01*
G01*
X31411750Y-79397001D01*
G75*
G02*
X31161751Y-79647000I-249999J0D01*
G01*
G37*
G04 #@! TD.AperFunction*
G04 #@! TA.AperFunction,SMDPad,CuDef*
G36*
G01*
X38497749Y-78497000D02*
X39797751Y-78497000D01*
G75*
G02*
X40047750Y-78746999I0J-249999D01*
G01*
X40047750Y-79397001D01*
G75*
G02*
X39797751Y-79647000I-249999J0D01*
G01*
X38497749Y-79647000D01*
G75*
G02*
X38247750Y-79397001I0J249999D01*
G01*
X38247750Y-78746999D01*
G75*
G02*
X38497749Y-78497000I249999J0D01*
G01*
G37*
G04 #@! TD.AperFunction*
G04 #@! TA.AperFunction,SMDPad,CuDef*
G36*
G01*
X38497749Y-75547000D02*
X39797751Y-75547000D01*
G75*
G02*
X40047750Y-75796999I0J-249999D01*
G01*
X40047750Y-76447001D01*
G75*
G02*
X39797751Y-76697000I-249999J0D01*
G01*
X38497749Y-76697000D01*
G75*
G02*
X38247750Y-76447001I0J249999D01*
G01*
X38247750Y-75796999D01*
G75*
G02*
X38497749Y-75547000I249999J0D01*
G01*
G37*
G04 #@! TD.AperFunction*
G04 #@! TA.AperFunction,SMDPad,CuDef*
G36*
G01*
X28691000Y-58912999D02*
X28691000Y-60213001D01*
G75*
G02*
X28441001Y-60463000I-249999J0D01*
G01*
X27790999Y-60463000D01*
G75*
G02*
X27541000Y-60213001I0J249999D01*
G01*
X27541000Y-58912999D01*
G75*
G02*
X27790999Y-58663000I249999J0D01*
G01*
X28441001Y-58663000D01*
G75*
G02*
X28691000Y-58912999I0J-249999D01*
G01*
G37*
G04 #@! TD.AperFunction*
G04 #@! TA.AperFunction,SMDPad,CuDef*
G36*
G01*
X31641000Y-58912999D02*
X31641000Y-60213001D01*
G75*
G02*
X31391001Y-60463000I-249999J0D01*
G01*
X30740999Y-60463000D01*
G75*
G02*
X30491000Y-60213001I0J249999D01*
G01*
X30491000Y-58912999D01*
G75*
G02*
X30740999Y-58663000I249999J0D01*
G01*
X31391001Y-58663000D01*
G75*
G02*
X31641000Y-58912999I0J-249999D01*
G01*
G37*
G04 #@! TD.AperFunction*
G04 #@! TA.AperFunction,SMDPad,CuDef*
G36*
G01*
X42402999Y-73036000D02*
X43703001Y-73036000D01*
G75*
G02*
X43953000Y-73285999I0J-249999D01*
G01*
X43953000Y-73936001D01*
G75*
G02*
X43703001Y-74186000I-249999J0D01*
G01*
X42402999Y-74186000D01*
G75*
G02*
X42153000Y-73936001I0J249999D01*
G01*
X42153000Y-73285999D01*
G75*
G02*
X42402999Y-73036000I249999J0D01*
G01*
G37*
G04 #@! TD.AperFunction*
G04 #@! TA.AperFunction,SMDPad,CuDef*
G36*
G01*
X42402999Y-70086000D02*
X43703001Y-70086000D01*
G75*
G02*
X43953000Y-70335999I0J-249999D01*
G01*
X43953000Y-70986001D01*
G75*
G02*
X43703001Y-71236000I-249999J0D01*
G01*
X42402999Y-71236000D01*
G75*
G02*
X42153000Y-70986001I0J249999D01*
G01*
X42153000Y-70335999D01*
G75*
G02*
X42402999Y-70086000I249999J0D01*
G01*
G37*
G04 #@! TD.AperFunction*
G04 #@! TA.AperFunction,SMDPad,CuDef*
G36*
G01*
X24976250Y-63611999D02*
X24976250Y-64912001D01*
G75*
G02*
X24726251Y-65162000I-249999J0D01*
G01*
X24076249Y-65162000D01*
G75*
G02*
X23826250Y-64912001I0J249999D01*
G01*
X23826250Y-63611999D01*
G75*
G02*
X24076249Y-63362000I249999J0D01*
G01*
X24726251Y-63362000D01*
G75*
G02*
X24976250Y-63611999I0J-249999D01*
G01*
G37*
G04 #@! TD.AperFunction*
G04 #@! TA.AperFunction,SMDPad,CuDef*
G36*
G01*
X27926250Y-63611999D02*
X27926250Y-64912001D01*
G75*
G02*
X27676251Y-65162000I-249999J0D01*
G01*
X27026249Y-65162000D01*
G75*
G02*
X26776250Y-64912001I0J249999D01*
G01*
X26776250Y-63611999D01*
G75*
G02*
X27026249Y-63362000I249999J0D01*
G01*
X27676251Y-63362000D01*
G75*
G02*
X27926250Y-63611999I0J-249999D01*
G01*
G37*
G04 #@! TD.AperFunction*
G04 #@! TA.AperFunction,SMDPad,CuDef*
G36*
G01*
X40397000Y-60086001D02*
X40397000Y-58785999D01*
G75*
G02*
X40646999Y-58536000I249999J0D01*
G01*
X41297001Y-58536000D01*
G75*
G02*
X41547000Y-58785999I0J-249999D01*
G01*
X41547000Y-60086001D01*
G75*
G02*
X41297001Y-60336000I-249999J0D01*
G01*
X40646999Y-60336000D01*
G75*
G02*
X40397000Y-60086001I0J249999D01*
G01*
G37*
G04 #@! TD.AperFunction*
G04 #@! TA.AperFunction,SMDPad,CuDef*
G36*
G01*
X37447000Y-60086001D02*
X37447000Y-58785999D01*
G75*
G02*
X37696999Y-58536000I249999J0D01*
G01*
X38347001Y-58536000D01*
G75*
G02*
X38597000Y-58785999I0J-249999D01*
G01*
X38597000Y-60086001D01*
G75*
G02*
X38347001Y-60336000I-249999J0D01*
G01*
X37696999Y-60336000D01*
G75*
G02*
X37447000Y-60086001I0J249999D01*
G01*
G37*
G04 #@! TD.AperFunction*
D18*
X24384000Y-62611000D03*
X28067000Y-61087000D03*
X32512000Y-50292000D03*
X37973000Y-63119000D03*
X32131000Y-63119000D03*
X42164000Y-59436000D03*
X40640000Y-73533000D03*
X23622000Y-80391000D03*
X30734000Y-66675000D03*
X33528000Y-71755000D03*
X23241000Y-67437000D03*
X42418000Y-65786000D03*
X42418000Y-68326000D03*
X43180000Y-67437000D03*
X70802500Y-67373500D03*
D19*
X24401250Y-62628250D02*
X24384000Y-62611000D01*
X24401250Y-64262000D02*
X24401250Y-62628250D01*
X28116000Y-61038000D02*
X28067000Y-61087000D01*
X28116000Y-59563000D02*
X28116000Y-61038000D01*
X32531250Y-50311250D02*
X32512000Y-50292000D01*
X32531250Y-52125000D02*
X32531250Y-50311250D01*
X38220250Y-62871750D02*
X37973000Y-63119000D01*
X38220250Y-61737000D02*
X38220250Y-62871750D01*
X31820250Y-62808250D02*
X32131000Y-63119000D01*
X31820250Y-61737000D02*
X31820250Y-62808250D01*
X40972000Y-59436000D02*
X42164000Y-59436000D01*
X43053000Y-60325000D02*
X42164000Y-59436000D01*
X43053000Y-60513500D02*
X43053000Y-60325000D01*
X40720250Y-73452750D02*
X40640000Y-73533000D01*
X40720250Y-71437000D02*
X40720250Y-73452750D01*
X40718000Y-73611000D02*
X40640000Y-73533000D01*
X43053000Y-73611000D02*
X40718000Y-73611000D01*
X23677000Y-80336000D02*
X23622000Y-80391000D01*
X23677000Y-78919000D02*
X23677000Y-80336000D01*
X30696000Y-66637000D02*
X30734000Y-66675000D01*
X29320250Y-66637000D02*
X30696000Y-66637000D01*
X33420250Y-71862750D02*
X33528000Y-71755000D01*
X33420250Y-73137000D02*
X33420250Y-71862750D01*
X24401250Y-67437000D02*
X23241000Y-67437000D01*
D20*
X36041148Y-78747000D02*
X36279750Y-78747000D01*
X38822750Y-78747000D02*
X39147750Y-79072000D01*
D19*
X36279750Y-78747000D02*
X38822750Y-78747000D01*
X33732652Y-76447000D02*
X33379750Y-76447000D01*
X36032652Y-78747000D02*
X33732652Y-76447000D01*
X36279750Y-78747000D02*
X36032652Y-78747000D01*
X38182240Y-80037510D02*
X39147750Y-79072000D01*
X29596440Y-80037510D02*
X38182240Y-80037510D01*
X29221240Y-79662310D02*
X29596440Y-80037510D01*
X29221240Y-77412510D02*
X29221240Y-79662310D01*
X30511750Y-76122000D02*
X29221240Y-77412510D01*
X40640000Y-76690750D02*
X40640000Y-73533000D01*
X39147750Y-79072000D02*
X40640000Y-77579750D01*
X31970788Y-74585491D02*
X30511750Y-76044529D01*
X32899661Y-74585491D02*
X31970788Y-74585491D01*
X30511750Y-76044529D02*
X30511750Y-76122000D01*
X33420250Y-74064902D02*
X32899661Y-74585491D01*
X33420250Y-73137000D02*
X33420250Y-74064902D01*
X40640000Y-77579750D02*
X40640000Y-76690750D01*
X37973000Y-59387000D02*
X38022000Y-59436000D01*
X37973000Y-57280000D02*
X37973000Y-59387000D01*
X39020250Y-60434250D02*
X39020250Y-61737000D01*
X38022000Y-59436000D02*
X39020250Y-60434250D01*
X31020250Y-59608750D02*
X31066000Y-59563000D01*
X31020250Y-61737000D02*
X31020250Y-59608750D01*
X27376250Y-64237000D02*
X27351250Y-64262000D01*
X29320250Y-64237000D02*
X27376250Y-64237000D01*
X28432070Y-68237000D02*
X27370500Y-69298570D01*
X27370500Y-69298570D02*
X27370500Y-69977000D01*
X29320250Y-68237000D02*
X28432070Y-68237000D01*
X43029000Y-70637000D02*
X43053000Y-70661000D01*
X40720250Y-70637000D02*
X43029000Y-70637000D01*
X30886000Y-64237000D02*
X29320250Y-64237000D01*
X32423000Y-68237000D02*
X32620250Y-68434250D01*
X40720250Y-70637000D02*
X39268000Y-70637000D01*
X39268000Y-70637000D02*
X39020250Y-70389250D01*
X38970250Y-69233750D02*
X39020250Y-69183750D01*
X32620250Y-69233750D02*
X38970250Y-69233750D01*
X39020250Y-69183750D02*
X39020250Y-61737000D01*
X39020250Y-70389250D02*
X39020250Y-69183750D01*
X32620250Y-68434250D02*
X32620250Y-69233750D01*
X32620250Y-69233750D02*
X32620250Y-73137000D01*
X31020250Y-68180250D02*
X31077000Y-68237000D01*
X29320250Y-68237000D02*
X31077000Y-68237000D01*
X31077000Y-68237000D02*
X32423000Y-68237000D01*
X31020250Y-63659250D02*
X31020250Y-64102750D01*
X31020250Y-64102750D02*
X30886000Y-64237000D01*
X31020250Y-61737000D02*
X31020250Y-63659250D01*
X39147750Y-76122000D02*
X39147750Y-75914250D01*
D20*
X35020250Y-73137000D02*
X34902749Y-73254501D01*
X36604750Y-76122000D02*
X36279750Y-76447000D01*
X39147750Y-76122000D02*
X36604750Y-76122000D01*
X35020250Y-75187500D02*
X36279750Y-76447000D01*
X35020250Y-73137000D02*
X35020250Y-75187500D01*
D19*
X33054750Y-79072000D02*
X33379750Y-78747000D01*
D20*
X30511750Y-79072000D02*
X33054750Y-79072000D01*
X33141148Y-78747000D02*
X33379750Y-78747000D01*
X32002749Y-77608601D02*
X33141148Y-78747000D01*
X32002749Y-75285399D02*
X32002749Y-77608601D01*
X32185147Y-75103001D02*
X32002749Y-75285399D01*
X33956851Y-75103001D02*
X32185147Y-75103001D01*
X34220250Y-74839602D02*
X33956851Y-75103001D01*
X34220250Y-73137000D02*
X34220250Y-74839602D01*
X29320250Y-67437000D02*
X27351250Y-67437000D01*
X42367000Y-65837000D02*
X42418000Y-65786000D01*
X40720250Y-65837000D02*
X42367000Y-65837000D01*
X40809250Y-68326000D02*
X40720250Y-68237000D01*
X42418000Y-68326000D02*
X40809250Y-68326000D01*
D19*
X35731250Y-52618430D02*
X35731250Y-52125000D01*
X37592820Y-54480000D02*
X35731250Y-52618430D01*
X37973000Y-54480000D02*
X37592820Y-54480000D01*
D20*
X51727000Y-66637000D02*
X51752500Y-66611500D01*
X40720250Y-66637000D02*
X51727000Y-66637000D01*
X51752500Y-66611500D02*
X51752500Y-72072500D01*
X51752500Y-53022500D02*
X51752500Y-66611500D01*
X40720250Y-67437000D02*
X43180000Y-67437000D01*
X70802500Y-67373500D02*
X70802500Y-72072500D01*
X70802500Y-53022500D02*
X70802500Y-67373500D01*
X34131250Y-53687250D02*
X33401000Y-54417500D01*
X34131250Y-52125000D02*
X34131250Y-53687250D01*
X33081500Y-57342500D02*
X32646000Y-57778000D01*
X33401000Y-57342500D02*
X33081500Y-57342500D01*
X27182953Y-57778000D02*
X26917000Y-58043954D01*
X32646000Y-57778000D02*
X27182953Y-57778000D01*
X29214230Y-65943020D02*
X29320250Y-65837000D01*
X23649185Y-65943020D02*
X29214230Y-65943020D01*
X23045230Y-65339065D02*
X23649185Y-65943020D01*
X23045230Y-61915723D02*
X23045230Y-65339065D01*
X26917000Y-58043954D02*
X23045230Y-61915723D01*
X35154518Y-57342500D02*
X35687000Y-57342500D01*
X34265008Y-58232010D02*
X35154518Y-57342500D01*
X27371010Y-58232010D02*
X34265008Y-58232010D01*
X23499240Y-62103780D02*
X27371010Y-58232010D01*
X23499240Y-65151008D02*
X23499240Y-62103780D01*
X23837242Y-65489010D02*
X23499240Y-65151008D01*
X27915258Y-65489010D02*
X23837242Y-65489010D01*
X28367268Y-65037000D02*
X27915258Y-65489010D01*
X29320250Y-65037000D02*
X28367268Y-65037000D01*
X34931250Y-53661750D02*
X35687000Y-54417500D01*
X34931250Y-52125000D02*
X34931250Y-53661750D01*
X27187500Y-72719000D02*
X24445500Y-69977000D01*
X27377000Y-72719000D02*
X27187500Y-72719000D01*
X31820250Y-72323398D02*
X31820250Y-73137000D01*
X31556851Y-72059999D02*
X31820250Y-72323398D01*
X28036001Y-72059999D02*
X31556851Y-72059999D01*
X27377000Y-72719000D02*
X28036001Y-72059999D01*
X43051500Y-63437000D02*
X43053000Y-63438500D01*
X40720250Y-63437000D02*
X43051500Y-63437000D01*
X31438887Y-63488942D02*
X31524358Y-63616859D01*
X31633141Y-63725642D01*
X31761058Y-63811113D01*
X31903191Y-63869987D01*
X32054078Y-63900000D01*
X32207922Y-63900000D01*
X32358809Y-63869987D01*
X32500942Y-63811113D01*
X32628859Y-63725642D01*
X32737642Y-63616859D01*
X32823113Y-63488942D01*
X32871138Y-63373000D01*
X37232862Y-63373000D01*
X37280887Y-63488942D01*
X37366358Y-63616859D01*
X37475141Y-63725642D01*
X37603058Y-63811113D01*
X37745191Y-63869987D01*
X37896078Y-63900000D01*
X38049922Y-63900000D01*
X38200809Y-63869987D01*
X38342942Y-63811113D01*
X38470859Y-63725642D01*
X38579642Y-63616859D01*
X38665113Y-63488942D01*
X38713138Y-63373000D01*
X39116000Y-63373000D01*
X39116000Y-71501000D01*
X34268138Y-71501000D01*
X34220113Y-71385058D01*
X34134642Y-71257141D01*
X34025859Y-71148358D01*
X33897942Y-71062887D01*
X33755809Y-71004013D01*
X33604922Y-70974000D01*
X33451078Y-70974000D01*
X33300191Y-71004013D01*
X33158058Y-71062887D01*
X33030141Y-71148358D01*
X32921358Y-71257141D01*
X32835887Y-71385058D01*
X32787862Y-71501000D01*
X30861000Y-71501000D01*
X30861000Y-67446039D01*
X30961809Y-67425987D01*
X31103942Y-67367113D01*
X31231859Y-67281642D01*
X31340642Y-67172859D01*
X31426113Y-67044942D01*
X31484987Y-66902809D01*
X31515000Y-66751922D01*
X31515000Y-66598078D01*
X31484987Y-66447191D01*
X31426113Y-66305058D01*
X31340642Y-66177141D01*
X31231859Y-66068358D01*
X31103942Y-65982887D01*
X30961809Y-65924013D01*
X30861000Y-65903961D01*
X30861000Y-63373000D01*
X31390862Y-63373000D01*
X31438887Y-63488942D01*
G04 #@! TA.AperFunction,Conductor*
D21*
G36*
X31438887Y-63488942D02*
G01*
X31524358Y-63616859D01*
X31633141Y-63725642D01*
X31761058Y-63811113D01*
X31903191Y-63869987D01*
X32054078Y-63900000D01*
X32207922Y-63900000D01*
X32358809Y-63869987D01*
X32500942Y-63811113D01*
X32628859Y-63725642D01*
X32737642Y-63616859D01*
X32823113Y-63488942D01*
X32871138Y-63373000D01*
X37232862Y-63373000D01*
X37280887Y-63488942D01*
X37366358Y-63616859D01*
X37475141Y-63725642D01*
X37603058Y-63811113D01*
X37745191Y-63869987D01*
X37896078Y-63900000D01*
X38049922Y-63900000D01*
X38200809Y-63869987D01*
X38342942Y-63811113D01*
X38470859Y-63725642D01*
X38579642Y-63616859D01*
X38665113Y-63488942D01*
X38713138Y-63373000D01*
X39116000Y-63373000D01*
X39116000Y-71501000D01*
X34268138Y-71501000D01*
X34220113Y-71385058D01*
X34134642Y-71257141D01*
X34025859Y-71148358D01*
X33897942Y-71062887D01*
X33755809Y-71004013D01*
X33604922Y-70974000D01*
X33451078Y-70974000D01*
X33300191Y-71004013D01*
X33158058Y-71062887D01*
X33030141Y-71148358D01*
X32921358Y-71257141D01*
X32835887Y-71385058D01*
X32787862Y-71501000D01*
X30861000Y-71501000D01*
X30861000Y-67446039D01*
X30961809Y-67425987D01*
X31103942Y-67367113D01*
X31231859Y-67281642D01*
X31340642Y-67172859D01*
X31426113Y-67044942D01*
X31484987Y-66902809D01*
X31515000Y-66751922D01*
X31515000Y-66598078D01*
X31484987Y-66447191D01*
X31426113Y-66305058D01*
X31340642Y-66177141D01*
X31231859Y-66068358D01*
X31103942Y-65982887D01*
X30961809Y-65924013D01*
X30861000Y-65903961D01*
X30861000Y-63373000D01*
X31390862Y-63373000D01*
X31438887Y-63488942D01*
G37*
G04 #@! TD.AperFunction*
M02*
