G04 #@! TF.GenerationSoftware,KiCad,Pcbnew,(5.1.7)-1*
G04 #@! TF.CreationDate,2020-11-03T00:38:03-05:00*
G04 #@! TF.ProjectId,keyboard_test,6b657962-6f61-4726-945f-746573742e6b,rev?*
G04 #@! TF.SameCoordinates,Original*
G04 #@! TF.FileFunction,Legend,Top*
G04 #@! TF.FilePolarity,Positive*
%FSLAX46Y46*%
G04 Gerber Fmt 4.6, Leading zero omitted, Abs format (unit mm)*
G04 Created by KiCad (PCBNEW (5.1.7)-1) date 2020-11-03 00:38:03*
%MOMM*%
%LPD*%
G01*
G04 APERTURE LIST*
%ADD10C,0.100000*%
%ADD11C,0.150000*%
%ADD12C,0.120000*%
%ADD13R,2.100000X1.800000*%
%ADD14O,1.700000X2.700000*%
%ADD15R,0.500000X2.250000*%
%ADD16R,0.550000X1.500000*%
%ADD17R,1.500000X0.550000*%
%ADD18R,1.100000X1.800000*%
%ADD19C,1.750000*%
%ADD20C,3.987800*%
G04 APERTURE END LIST*
D10*
G36*
X27781250Y-48418750D02*
G01*
X25400000Y-50800000D01*
X27781250Y-53181250D01*
X27781250Y-54768750D01*
X25400000Y-57150000D01*
X24606250Y-57150000D01*
X24606250Y-56356250D01*
X26987500Y-53975000D01*
X24606250Y-51593750D01*
X24606250Y-50006250D01*
X26987500Y-47625000D01*
X27781250Y-47625000D01*
X27781250Y-48418750D01*
G37*
X27781250Y-48418750D02*
X25400000Y-50800000D01*
X27781250Y-53181250D01*
X27781250Y-54768750D01*
X25400000Y-57150000D01*
X24606250Y-57150000D01*
X24606250Y-56356250D01*
X26987500Y-53975000D01*
X24606250Y-51593750D01*
X24606250Y-50006250D01*
X26987500Y-47625000D01*
X27781250Y-47625000D01*
X27781250Y-48418750D01*
D11*
X40949714Y-49728380D02*
X40616380Y-49252190D01*
X40378285Y-49728380D02*
X40378285Y-48728380D01*
X40759238Y-48728380D01*
X40854476Y-48776000D01*
X40902095Y-48823619D01*
X40949714Y-48918857D01*
X40949714Y-49061714D01*
X40902095Y-49156952D01*
X40854476Y-49204571D01*
X40759238Y-49252190D01*
X40378285Y-49252190D01*
X41759238Y-49680761D02*
X41664000Y-49728380D01*
X41473523Y-49728380D01*
X41378285Y-49680761D01*
X41330666Y-49585523D01*
X41330666Y-49204571D01*
X41378285Y-49109333D01*
X41473523Y-49061714D01*
X41664000Y-49061714D01*
X41759238Y-49109333D01*
X41806857Y-49204571D01*
X41806857Y-49299809D01*
X41330666Y-49395047D01*
X42140190Y-49061714D02*
X42378285Y-49728380D01*
X42616380Y-49061714D01*
X42997333Y-49633142D02*
X43044952Y-49680761D01*
X42997333Y-49728380D01*
X42949714Y-49680761D01*
X42997333Y-49633142D01*
X42997333Y-49728380D01*
X43425904Y-48823619D02*
X43473523Y-48776000D01*
X43568761Y-48728380D01*
X43806857Y-48728380D01*
X43902095Y-48776000D01*
X43949714Y-48823619D01*
X43997333Y-48918857D01*
X43997333Y-49014095D01*
X43949714Y-49156952D01*
X43378285Y-49728380D01*
X43997333Y-49728380D01*
X39902095Y-47204380D02*
X39902095Y-47918666D01*
X39854476Y-48061523D01*
X39759238Y-48156761D01*
X39616380Y-48204380D01*
X39521142Y-48204380D01*
X40759238Y-48156761D02*
X40664000Y-48204380D01*
X40473523Y-48204380D01*
X40378285Y-48156761D01*
X40330666Y-48061523D01*
X40330666Y-47680571D01*
X40378285Y-47585333D01*
X40473523Y-47537714D01*
X40664000Y-47537714D01*
X40759238Y-47585333D01*
X40806857Y-47680571D01*
X40806857Y-47775809D01*
X40330666Y-47871047D01*
X41092571Y-47537714D02*
X41473523Y-47537714D01*
X41235428Y-48204380D02*
X41235428Y-47347238D01*
X41283047Y-47252000D01*
X41378285Y-47204380D01*
X41473523Y-47204380D01*
X41664000Y-47537714D02*
X42044952Y-47537714D01*
X41806857Y-48204380D02*
X41806857Y-47347238D01*
X41854476Y-47252000D01*
X41949714Y-47204380D01*
X42044952Y-47204380D01*
X42378285Y-48204380D02*
X42378285Y-47204380D01*
X42759238Y-47204380D01*
X42854476Y-47252000D01*
X42902095Y-47299619D01*
X42949714Y-47394857D01*
X42949714Y-47537714D01*
X42902095Y-47632952D01*
X42854476Y-47680571D01*
X42759238Y-47728190D01*
X42378285Y-47728190D01*
X43806857Y-48204380D02*
X43806857Y-47680571D01*
X43759238Y-47585333D01*
X43664000Y-47537714D01*
X43473523Y-47537714D01*
X43378285Y-47585333D01*
X43806857Y-48156761D02*
X43711619Y-48204380D01*
X43473523Y-48204380D01*
X43378285Y-48156761D01*
X43330666Y-48061523D01*
X43330666Y-47966285D01*
X43378285Y-47871047D01*
X43473523Y-47823428D01*
X43711619Y-47823428D01*
X43806857Y-47775809D01*
X44711619Y-48204380D02*
X44711619Y-47204380D01*
X44711619Y-48156761D02*
X44616380Y-48204380D01*
X44425904Y-48204380D01*
X44330666Y-48156761D01*
X44283047Y-48109142D01*
X44235428Y-48013904D01*
X44235428Y-47728190D01*
X44283047Y-47632952D01*
X44330666Y-47585333D01*
X44425904Y-47537714D01*
X44616380Y-47537714D01*
X44711619Y-47585333D01*
D12*
X37529750Y-75347000D02*
X32129750Y-75347000D01*
X37529750Y-79847000D02*
X37529750Y-75347000D01*
D11*
X37981250Y-47625000D02*
X37981250Y-53075000D01*
X30281250Y-47625000D02*
X30281250Y-53075000D01*
X37981250Y-53075000D02*
X30281250Y-53075000D01*
X29845250Y-62837000D02*
X28570250Y-62837000D01*
X40195250Y-62262000D02*
X39520250Y-62262000D01*
X40195250Y-72612000D02*
X39520250Y-72612000D01*
X29845250Y-72612000D02*
X30520250Y-72612000D01*
X29845250Y-62262000D02*
X30520250Y-62262000D01*
X29845250Y-72612000D02*
X29845250Y-71937000D01*
X40195250Y-72612000D02*
X40195250Y-71937000D01*
X40195250Y-62262000D02*
X40195250Y-62937000D01*
X29845250Y-62262000D02*
X29845250Y-62837000D01*
X28127000Y-73219000D02*
X28127000Y-78419000D01*
X28127000Y-78419000D02*
X22927000Y-78419000D01*
X22927000Y-78419000D02*
X22927000Y-73219000D01*
X22927000Y-73219000D02*
X28127000Y-73219000D01*
X26527000Y-75819000D02*
G75*
G03*
X26527000Y-75819000I-1000000J0D01*
G01*
D12*
X43963000Y-62703064D02*
X43963000Y-61248936D01*
X42143000Y-62703064D02*
X42143000Y-61248936D01*
X34777000Y-55152936D02*
X34777000Y-56607064D01*
X36597000Y-55152936D02*
X36597000Y-56607064D01*
X34311000Y-56607064D02*
X34311000Y-55152936D01*
X32491000Y-56607064D02*
X32491000Y-55152936D01*
X25180936Y-70887000D02*
X26635064Y-70887000D01*
X25180936Y-69067000D02*
X26635064Y-69067000D01*
X38883000Y-56482064D02*
X38883000Y-55277936D01*
X37063000Y-56482064D02*
X37063000Y-55277936D01*
X26587502Y-66527000D02*
X25164998Y-66527000D01*
X26587502Y-68347000D02*
X25164998Y-68347000D01*
X31421750Y-78308252D02*
X31421750Y-76885748D01*
X29601750Y-78308252D02*
X29601750Y-76885748D01*
X38237750Y-76885748D02*
X38237750Y-78308252D01*
X40057750Y-76885748D02*
X40057750Y-78308252D01*
X30302252Y-58653000D02*
X28879748Y-58653000D01*
X30302252Y-60473000D02*
X28879748Y-60473000D01*
X42143000Y-71424748D02*
X42143000Y-72847252D01*
X43963000Y-71424748D02*
X43963000Y-72847252D01*
X26587502Y-63352000D02*
X25164998Y-63352000D01*
X26587502Y-65172000D02*
X25164998Y-65172000D01*
X38785748Y-60346000D02*
X40208252Y-60346000D01*
X38785748Y-58526000D02*
X40208252Y-58526000D01*
D11*
X34353559Y-80623190D02*
X34353559Y-81099380D01*
X34020226Y-80099380D02*
X34353559Y-80623190D01*
X34686892Y-80099380D01*
X35544035Y-81099380D02*
X34972607Y-81099380D01*
X35258321Y-81099380D02*
X35258321Y-80099380D01*
X35163083Y-80242238D01*
X35067845Y-80337476D01*
X34972607Y-80385095D01*
X32393154Y-47585380D02*
X32393154Y-48394904D01*
X32440773Y-48490142D01*
X32488392Y-48537761D01*
X32583630Y-48585380D01*
X32774107Y-48585380D01*
X32869345Y-48537761D01*
X32916964Y-48490142D01*
X32964583Y-48394904D01*
X32964583Y-47585380D01*
X33393154Y-48537761D02*
X33536011Y-48585380D01*
X33774107Y-48585380D01*
X33869345Y-48537761D01*
X33916964Y-48490142D01*
X33964583Y-48394904D01*
X33964583Y-48299666D01*
X33916964Y-48204428D01*
X33869345Y-48156809D01*
X33774107Y-48109190D01*
X33583630Y-48061571D01*
X33488392Y-48013952D01*
X33440773Y-47966333D01*
X33393154Y-47871095D01*
X33393154Y-47775857D01*
X33440773Y-47680619D01*
X33488392Y-47633000D01*
X33583630Y-47585380D01*
X33821726Y-47585380D01*
X33964583Y-47633000D01*
X34726488Y-48061571D02*
X34869345Y-48109190D01*
X34916964Y-48156809D01*
X34964583Y-48252047D01*
X34964583Y-48394904D01*
X34916964Y-48490142D01*
X34869345Y-48537761D01*
X34774107Y-48585380D01*
X34393154Y-48585380D01*
X34393154Y-47585380D01*
X34726488Y-47585380D01*
X34821726Y-47633000D01*
X34869345Y-47680619D01*
X34916964Y-47775857D01*
X34916964Y-47871095D01*
X34869345Y-47966333D01*
X34821726Y-48013952D01*
X34726488Y-48061571D01*
X34393154Y-48061571D01*
X35916964Y-48585380D02*
X35345535Y-48585380D01*
X35631250Y-48585380D02*
X35631250Y-47585380D01*
X35536011Y-47728238D01*
X35440773Y-47823476D01*
X35345535Y-47871095D01*
X34258345Y-59439380D02*
X34258345Y-60248904D01*
X34305964Y-60344142D01*
X34353583Y-60391761D01*
X34448821Y-60439380D01*
X34639297Y-60439380D01*
X34734535Y-60391761D01*
X34782154Y-60344142D01*
X34829773Y-60248904D01*
X34829773Y-59439380D01*
X35829773Y-60439380D02*
X35258345Y-60439380D01*
X35544059Y-60439380D02*
X35544059Y-59439380D01*
X35448821Y-59582238D01*
X35353583Y-59677476D01*
X35258345Y-59725095D01*
X25931761Y-81470333D02*
X25979380Y-81327476D01*
X25979380Y-81089380D01*
X25931761Y-80994142D01*
X25884142Y-80946523D01*
X25788904Y-80898904D01*
X25693666Y-80898904D01*
X25598428Y-80946523D01*
X25550809Y-80994142D01*
X25503190Y-81089380D01*
X25455571Y-81279857D01*
X25407952Y-81375095D01*
X25360333Y-81422714D01*
X25265095Y-81470333D01*
X25169857Y-81470333D01*
X25074619Y-81422714D01*
X25027000Y-81375095D01*
X24979380Y-81279857D01*
X24979380Y-81041761D01*
X25027000Y-80898904D01*
X24979380Y-80565571D02*
X25979380Y-80327476D01*
X25265095Y-80137000D01*
X25979380Y-79946523D01*
X24979380Y-79708428D01*
X25979380Y-78803666D02*
X25979380Y-79375095D01*
X25979380Y-79089380D02*
X24979380Y-79089380D01*
X25122238Y-79184619D01*
X25217476Y-79279857D01*
X25265095Y-79375095D01*
X41685380Y-62142666D02*
X41209190Y-62476000D01*
X41685380Y-62714095D02*
X40685380Y-62714095D01*
X40685380Y-62333142D01*
X40733000Y-62237904D01*
X40780619Y-62190285D01*
X40875857Y-62142666D01*
X41018714Y-62142666D01*
X41113952Y-62190285D01*
X41161571Y-62237904D01*
X41209190Y-62333142D01*
X41209190Y-62714095D01*
X41018714Y-61285523D02*
X41685380Y-61285523D01*
X40637761Y-61523619D02*
X41352047Y-61761714D01*
X41352047Y-61142666D01*
X32202380Y-56046666D02*
X31726190Y-56380000D01*
X32202380Y-56618095D02*
X31202380Y-56618095D01*
X31202380Y-56237142D01*
X31250000Y-56141904D01*
X31297619Y-56094285D01*
X31392857Y-56046666D01*
X31535714Y-56046666D01*
X31630952Y-56094285D01*
X31678571Y-56141904D01*
X31726190Y-56237142D01*
X31726190Y-56618095D01*
X31202380Y-55713333D02*
X31202380Y-55094285D01*
X31583333Y-55427619D01*
X31583333Y-55284761D01*
X31630952Y-55189523D01*
X31678571Y-55141904D01*
X31773809Y-55094285D01*
X32011904Y-55094285D01*
X32107142Y-55141904D01*
X32154761Y-55189523D01*
X32202380Y-55284761D01*
X32202380Y-55570476D01*
X32154761Y-55665714D01*
X32107142Y-55713333D01*
X30805380Y-56046666D02*
X30329190Y-56380000D01*
X30805380Y-56618095D02*
X29805380Y-56618095D01*
X29805380Y-56237142D01*
X29853000Y-56141904D01*
X29900619Y-56094285D01*
X29995857Y-56046666D01*
X30138714Y-56046666D01*
X30233952Y-56094285D01*
X30281571Y-56141904D01*
X30329190Y-56237142D01*
X30329190Y-56618095D01*
X29900619Y-55665714D02*
X29853000Y-55618095D01*
X29805380Y-55522857D01*
X29805380Y-55284761D01*
X29853000Y-55189523D01*
X29900619Y-55141904D01*
X29995857Y-55094285D01*
X30091095Y-55094285D01*
X30233952Y-55141904D01*
X30805380Y-55713333D01*
X30805380Y-55094285D01*
X22852083Y-71096130D02*
X22518750Y-70619940D01*
X22280654Y-71096130D02*
X22280654Y-70096130D01*
X22661607Y-70096130D01*
X22756845Y-70143750D01*
X22804464Y-70191369D01*
X22852083Y-70286607D01*
X22852083Y-70429464D01*
X22804464Y-70524702D01*
X22756845Y-70572321D01*
X22661607Y-70619940D01*
X22280654Y-70619940D01*
X23804464Y-71096130D02*
X23233035Y-71096130D01*
X23518750Y-71096130D02*
X23518750Y-70096130D01*
X23423511Y-70238988D01*
X23328273Y-70334226D01*
X23233035Y-70381845D01*
X39552571Y-56213333D02*
X39552571Y-56546666D01*
X40076380Y-56546666D02*
X39076380Y-56546666D01*
X39076380Y-56070476D01*
X40076380Y-55165714D02*
X40076380Y-55737142D01*
X40076380Y-55451428D02*
X39076380Y-55451428D01*
X39219238Y-55546666D01*
X39314476Y-55641904D01*
X39362095Y-55737142D01*
X22852083Y-69413392D02*
X22804464Y-69461011D01*
X22661607Y-69508630D01*
X22566369Y-69508630D01*
X22423511Y-69461011D01*
X22328273Y-69365773D01*
X22280654Y-69270535D01*
X22233035Y-69080059D01*
X22233035Y-68937202D01*
X22280654Y-68746726D01*
X22328273Y-68651488D01*
X22423511Y-68556250D01*
X22566369Y-68508630D01*
X22661607Y-68508630D01*
X22804464Y-68556250D01*
X22852083Y-68603869D01*
X23185416Y-68508630D02*
X23852083Y-68508630D01*
X23423511Y-69508630D01*
X30773642Y-81224416D02*
X30821261Y-81272035D01*
X30868880Y-81414892D01*
X30868880Y-81510130D01*
X30821261Y-81652988D01*
X30726023Y-81748226D01*
X30630785Y-81795845D01*
X30440309Y-81843464D01*
X30297452Y-81843464D01*
X30106976Y-81795845D01*
X30011738Y-81748226D01*
X29916500Y-81652988D01*
X29868880Y-81510130D01*
X29868880Y-81414892D01*
X29916500Y-81272035D01*
X29964119Y-81224416D01*
X29868880Y-80367273D02*
X29868880Y-80557750D01*
X29916500Y-80652988D01*
X29964119Y-80700607D01*
X30106976Y-80795845D01*
X30297452Y-80843464D01*
X30678404Y-80843464D01*
X30773642Y-80795845D01*
X30821261Y-80748226D01*
X30868880Y-80652988D01*
X30868880Y-80462511D01*
X30821261Y-80367273D01*
X30773642Y-80319654D01*
X30678404Y-80272035D01*
X30440309Y-80272035D01*
X30345071Y-80319654D01*
X30297452Y-80367273D01*
X30249833Y-80462511D01*
X30249833Y-80652988D01*
X30297452Y-80748226D01*
X30345071Y-80795845D01*
X30440309Y-80843464D01*
X39409642Y-81224416D02*
X39457261Y-81272035D01*
X39504880Y-81414892D01*
X39504880Y-81510130D01*
X39457261Y-81652988D01*
X39362023Y-81748226D01*
X39266785Y-81795845D01*
X39076309Y-81843464D01*
X38933452Y-81843464D01*
X38742976Y-81795845D01*
X38647738Y-81748226D01*
X38552500Y-81652988D01*
X38504880Y-81510130D01*
X38504880Y-81414892D01*
X38552500Y-81272035D01*
X38600119Y-81224416D01*
X38504880Y-80319654D02*
X38504880Y-80795845D01*
X38981071Y-80843464D01*
X38933452Y-80795845D01*
X38885833Y-80700607D01*
X38885833Y-80462511D01*
X38933452Y-80367273D01*
X38981071Y-80319654D01*
X39076309Y-80272035D01*
X39314404Y-80272035D01*
X39409642Y-80319654D01*
X39457261Y-80367273D01*
X39504880Y-80462511D01*
X39504880Y-80700607D01*
X39457261Y-80795845D01*
X39409642Y-80843464D01*
X29424333Y-61770142D02*
X29376714Y-61817761D01*
X29233857Y-61865380D01*
X29138619Y-61865380D01*
X28995761Y-61817761D01*
X28900523Y-61722523D01*
X28852904Y-61627285D01*
X28805285Y-61436809D01*
X28805285Y-61293952D01*
X28852904Y-61103476D01*
X28900523Y-61008238D01*
X28995761Y-60913000D01*
X29138619Y-60865380D01*
X29233857Y-60865380D01*
X29376714Y-60913000D01*
X29424333Y-60960619D01*
X30281476Y-61198714D02*
X30281476Y-61865380D01*
X30043380Y-60817761D02*
X29805285Y-61532047D01*
X30424333Y-61532047D01*
X45260142Y-72302666D02*
X45307761Y-72350285D01*
X45355380Y-72493142D01*
X45355380Y-72588380D01*
X45307761Y-72731238D01*
X45212523Y-72826476D01*
X45117285Y-72874095D01*
X44926809Y-72921714D01*
X44783952Y-72921714D01*
X44593476Y-72874095D01*
X44498238Y-72826476D01*
X44403000Y-72731238D01*
X44355380Y-72588380D01*
X44355380Y-72493142D01*
X44403000Y-72350285D01*
X44450619Y-72302666D01*
X44355380Y-71969333D02*
X44355380Y-71350285D01*
X44736333Y-71683619D01*
X44736333Y-71540761D01*
X44783952Y-71445523D01*
X44831571Y-71397904D01*
X44926809Y-71350285D01*
X45164904Y-71350285D01*
X45260142Y-71397904D01*
X45307761Y-71445523D01*
X45355380Y-71540761D01*
X45355380Y-71826476D01*
X45307761Y-71921714D01*
X45260142Y-71969333D01*
X25709583Y-62968142D02*
X25661964Y-63015761D01*
X25519107Y-63063380D01*
X25423869Y-63063380D01*
X25281011Y-63015761D01*
X25185773Y-62920523D01*
X25138154Y-62825285D01*
X25090535Y-62634809D01*
X25090535Y-62491952D01*
X25138154Y-62301476D01*
X25185773Y-62206238D01*
X25281011Y-62111000D01*
X25423869Y-62063380D01*
X25519107Y-62063380D01*
X25661964Y-62111000D01*
X25709583Y-62158619D01*
X26090535Y-62158619D02*
X26138154Y-62111000D01*
X26233392Y-62063380D01*
X26471488Y-62063380D01*
X26566726Y-62111000D01*
X26614345Y-62158619D01*
X26661964Y-62253857D01*
X26661964Y-62349095D01*
X26614345Y-62491952D01*
X26042916Y-63063380D01*
X26661964Y-63063380D01*
X40092333Y-57943142D02*
X40044714Y-57990761D01*
X39901857Y-58038380D01*
X39806619Y-58038380D01*
X39663761Y-57990761D01*
X39568523Y-57895523D01*
X39520904Y-57800285D01*
X39473285Y-57609809D01*
X39473285Y-57466952D01*
X39520904Y-57276476D01*
X39568523Y-57181238D01*
X39663761Y-57086000D01*
X39806619Y-57038380D01*
X39901857Y-57038380D01*
X40044714Y-57086000D01*
X40092333Y-57133619D01*
X41044714Y-58038380D02*
X40473285Y-58038380D01*
X40759000Y-58038380D02*
X40759000Y-57038380D01*
X40663761Y-57181238D01*
X40568523Y-57276476D01*
X40473285Y-57324095D01*
%LPC*%
D10*
G36*
X27781250Y-57150000D02*
G01*
X26193750Y-57150000D01*
X27781250Y-55562500D01*
X27781250Y-57150000D01*
G37*
X27781250Y-57150000D02*
X26193750Y-57150000D01*
X27781250Y-55562500D01*
X27781250Y-57150000D01*
G36*
X24606250Y-49212500D02*
G01*
X24606250Y-47625000D01*
X26193750Y-47625000D01*
X24606250Y-49212500D01*
G37*
X24606250Y-49212500D02*
X24606250Y-47625000D01*
X26193750Y-47625000D01*
X24606250Y-49212500D01*
G36*
X26193750Y-53975000D02*
G01*
X24606250Y-55562500D01*
X24606250Y-52387500D01*
X26193750Y-53975000D01*
G37*
X26193750Y-53975000D02*
X24606250Y-55562500D01*
X24606250Y-52387500D01*
X26193750Y-53975000D01*
G36*
X27781250Y-52387500D02*
G01*
X26193750Y-50800000D01*
X27781250Y-49212500D01*
X27781250Y-52387500D01*
G37*
X27781250Y-52387500D02*
X26193750Y-50800000D01*
X27781250Y-49212500D01*
X27781250Y-52387500D01*
D13*
X36279750Y-78747000D03*
X33379750Y-78747000D03*
X33379750Y-76447000D03*
X36279750Y-76447000D03*
D14*
X37781250Y-47625000D03*
X30481250Y-47625000D03*
X30481250Y-52125000D03*
X37781250Y-52125000D03*
D15*
X35731250Y-52125000D03*
X34931250Y-52125000D03*
X34131250Y-52125000D03*
X33331250Y-52125000D03*
X32531250Y-52125000D03*
D16*
X31020250Y-61737000D03*
X31820250Y-61737000D03*
X32620250Y-61737000D03*
X33420250Y-61737000D03*
X34220250Y-61737000D03*
X35020250Y-61737000D03*
X35820250Y-61737000D03*
X36620250Y-61737000D03*
X37420250Y-61737000D03*
X38220250Y-61737000D03*
X39020250Y-61737000D03*
D17*
X40720250Y-63437000D03*
X40720250Y-64237000D03*
X40720250Y-65037000D03*
X40720250Y-65837000D03*
X40720250Y-66637000D03*
X40720250Y-67437000D03*
X40720250Y-68237000D03*
X40720250Y-69037000D03*
X40720250Y-69837000D03*
X40720250Y-70637000D03*
X40720250Y-71437000D03*
D16*
X39020250Y-73137000D03*
X38220250Y-73137000D03*
X37420250Y-73137000D03*
X36620250Y-73137000D03*
X35820250Y-73137000D03*
X35020250Y-73137000D03*
X34220250Y-73137000D03*
X33420250Y-73137000D03*
X32620250Y-73137000D03*
X31820250Y-73137000D03*
X31020250Y-73137000D03*
D17*
X29320250Y-71437000D03*
X29320250Y-70637000D03*
X29320250Y-69837000D03*
X29320250Y-69037000D03*
X29320250Y-68237000D03*
X29320250Y-67437000D03*
X29320250Y-66637000D03*
X29320250Y-65837000D03*
X29320250Y-65037000D03*
X29320250Y-64237000D03*
X29320250Y-63437000D03*
D18*
X23677000Y-72719000D03*
X27377000Y-78919000D03*
X27377000Y-72719000D03*
X23677000Y-78919000D03*
G36*
G01*
X43678002Y-61076000D02*
X42427998Y-61076000D01*
G75*
G02*
X42178000Y-60826002I0J249998D01*
G01*
X42178000Y-60200998D01*
G75*
G02*
X42427998Y-59951000I249998J0D01*
G01*
X43678002Y-59951000D01*
G75*
G02*
X43928000Y-60200998I0J-249998D01*
G01*
X43928000Y-60826002D01*
G75*
G02*
X43678002Y-61076000I-249998J0D01*
G01*
G37*
G36*
G01*
X43678002Y-64001000D02*
X42427998Y-64001000D01*
G75*
G02*
X42178000Y-63751002I0J249998D01*
G01*
X42178000Y-63125998D01*
G75*
G02*
X42427998Y-62876000I249998J0D01*
G01*
X43678002Y-62876000D01*
G75*
G02*
X43928000Y-63125998I0J-249998D01*
G01*
X43928000Y-63751002D01*
G75*
G02*
X43678002Y-64001000I-249998J0D01*
G01*
G37*
G36*
G01*
X35061998Y-56780000D02*
X36312002Y-56780000D01*
G75*
G02*
X36562000Y-57029998I0J-249998D01*
G01*
X36562000Y-57655002D01*
G75*
G02*
X36312002Y-57905000I-249998J0D01*
G01*
X35061998Y-57905000D01*
G75*
G02*
X34812000Y-57655002I0J249998D01*
G01*
X34812000Y-57029998D01*
G75*
G02*
X35061998Y-56780000I249998J0D01*
G01*
G37*
G36*
G01*
X35061998Y-53855000D02*
X36312002Y-53855000D01*
G75*
G02*
X36562000Y-54104998I0J-249998D01*
G01*
X36562000Y-54730002D01*
G75*
G02*
X36312002Y-54980000I-249998J0D01*
G01*
X35061998Y-54980000D01*
G75*
G02*
X34812000Y-54730002I0J249998D01*
G01*
X34812000Y-54104998D01*
G75*
G02*
X35061998Y-53855000I249998J0D01*
G01*
G37*
G36*
G01*
X34026002Y-54980000D02*
X32775998Y-54980000D01*
G75*
G02*
X32526000Y-54730002I0J249998D01*
G01*
X32526000Y-54104998D01*
G75*
G02*
X32775998Y-53855000I249998J0D01*
G01*
X34026002Y-53855000D01*
G75*
G02*
X34276000Y-54104998I0J-249998D01*
G01*
X34276000Y-54730002D01*
G75*
G02*
X34026002Y-54980000I-249998J0D01*
G01*
G37*
G36*
G01*
X34026002Y-57905000D02*
X32775998Y-57905000D01*
G75*
G02*
X32526000Y-57655002I0J249998D01*
G01*
X32526000Y-57029998D01*
G75*
G02*
X32775998Y-56780000I249998J0D01*
G01*
X34026002Y-56780000D01*
G75*
G02*
X34276000Y-57029998I0J-249998D01*
G01*
X34276000Y-57655002D01*
G75*
G02*
X34026002Y-57905000I-249998J0D01*
G01*
G37*
G36*
G01*
X26808000Y-70602002D02*
X26808000Y-69351998D01*
G75*
G02*
X27057998Y-69102000I249998J0D01*
G01*
X27683002Y-69102000D01*
G75*
G02*
X27933000Y-69351998I0J-249998D01*
G01*
X27933000Y-70602002D01*
G75*
G02*
X27683002Y-70852000I-249998J0D01*
G01*
X27057998Y-70852000D01*
G75*
G02*
X26808000Y-70602002I0J249998D01*
G01*
G37*
G36*
G01*
X23883000Y-70602002D02*
X23883000Y-69351998D01*
G75*
G02*
X24132998Y-69102000I249998J0D01*
G01*
X24758002Y-69102000D01*
G75*
G02*
X25008000Y-69351998I0J-249998D01*
G01*
X25008000Y-70602002D01*
G75*
G02*
X24758002Y-70852000I-249998J0D01*
G01*
X24132998Y-70852000D01*
G75*
G02*
X23883000Y-70602002I0J249998D01*
G01*
G37*
D19*
X79692500Y-74612500D03*
X69532500Y-74612500D03*
D20*
X74612500Y-74612500D03*
D19*
X60642500Y-74612500D03*
X50482500Y-74612500D03*
D20*
X55562500Y-74612500D03*
D19*
X79692500Y-55562500D03*
X69532500Y-55562500D03*
D20*
X74612500Y-55562500D03*
D19*
X60642500Y-55562500D03*
X50482500Y-55562500D03*
D20*
X55562500Y-55562500D03*
G36*
G01*
X38598000Y-55105000D02*
X37348000Y-55105000D01*
G75*
G02*
X37098000Y-54855000I0J250000D01*
G01*
X37098000Y-54105000D01*
G75*
G02*
X37348000Y-53855000I250000J0D01*
G01*
X38598000Y-53855000D01*
G75*
G02*
X38848000Y-54105000I0J-250000D01*
G01*
X38848000Y-54855000D01*
G75*
G02*
X38598000Y-55105000I-250000J0D01*
G01*
G37*
G36*
G01*
X38598000Y-57905000D02*
X37348000Y-57905000D01*
G75*
G02*
X37098000Y-57655000I0J250000D01*
G01*
X37098000Y-56905000D01*
G75*
G02*
X37348000Y-56655000I250000J0D01*
G01*
X38598000Y-56655000D01*
G75*
G02*
X38848000Y-56905000I0J-250000D01*
G01*
X38848000Y-57655000D01*
G75*
G02*
X38598000Y-57905000I-250000J0D01*
G01*
G37*
G36*
G01*
X24976250Y-66786999D02*
X24976250Y-68087001D01*
G75*
G02*
X24726251Y-68337000I-249999J0D01*
G01*
X24076249Y-68337000D01*
G75*
G02*
X23826250Y-68087001I0J249999D01*
G01*
X23826250Y-66786999D01*
G75*
G02*
X24076249Y-66537000I249999J0D01*
G01*
X24726251Y-66537000D01*
G75*
G02*
X24976250Y-66786999I0J-249999D01*
G01*
G37*
G36*
G01*
X27926250Y-66786999D02*
X27926250Y-68087001D01*
G75*
G02*
X27676251Y-68337000I-249999J0D01*
G01*
X27026249Y-68337000D01*
G75*
G02*
X26776250Y-68087001I0J249999D01*
G01*
X26776250Y-66786999D01*
G75*
G02*
X27026249Y-66537000I249999J0D01*
G01*
X27676251Y-66537000D01*
G75*
G02*
X27926250Y-66786999I0J-249999D01*
G01*
G37*
G36*
G01*
X31161751Y-76697000D02*
X29861749Y-76697000D01*
G75*
G02*
X29611750Y-76447001I0J249999D01*
G01*
X29611750Y-75796999D01*
G75*
G02*
X29861749Y-75547000I249999J0D01*
G01*
X31161751Y-75547000D01*
G75*
G02*
X31411750Y-75796999I0J-249999D01*
G01*
X31411750Y-76447001D01*
G75*
G02*
X31161751Y-76697000I-249999J0D01*
G01*
G37*
G36*
G01*
X31161751Y-79647000D02*
X29861749Y-79647000D01*
G75*
G02*
X29611750Y-79397001I0J249999D01*
G01*
X29611750Y-78746999D01*
G75*
G02*
X29861749Y-78497000I249999J0D01*
G01*
X31161751Y-78497000D01*
G75*
G02*
X31411750Y-78746999I0J-249999D01*
G01*
X31411750Y-79397001D01*
G75*
G02*
X31161751Y-79647000I-249999J0D01*
G01*
G37*
G36*
G01*
X38497749Y-78497000D02*
X39797751Y-78497000D01*
G75*
G02*
X40047750Y-78746999I0J-249999D01*
G01*
X40047750Y-79397001D01*
G75*
G02*
X39797751Y-79647000I-249999J0D01*
G01*
X38497749Y-79647000D01*
G75*
G02*
X38247750Y-79397001I0J249999D01*
G01*
X38247750Y-78746999D01*
G75*
G02*
X38497749Y-78497000I249999J0D01*
G01*
G37*
G36*
G01*
X38497749Y-75547000D02*
X39797751Y-75547000D01*
G75*
G02*
X40047750Y-75796999I0J-249999D01*
G01*
X40047750Y-76447001D01*
G75*
G02*
X39797751Y-76697000I-249999J0D01*
G01*
X38497749Y-76697000D01*
G75*
G02*
X38247750Y-76447001I0J249999D01*
G01*
X38247750Y-75796999D01*
G75*
G02*
X38497749Y-75547000I249999J0D01*
G01*
G37*
G36*
G01*
X28691000Y-58912999D02*
X28691000Y-60213001D01*
G75*
G02*
X28441001Y-60463000I-249999J0D01*
G01*
X27790999Y-60463000D01*
G75*
G02*
X27541000Y-60213001I0J249999D01*
G01*
X27541000Y-58912999D01*
G75*
G02*
X27790999Y-58663000I249999J0D01*
G01*
X28441001Y-58663000D01*
G75*
G02*
X28691000Y-58912999I0J-249999D01*
G01*
G37*
G36*
G01*
X31641000Y-58912999D02*
X31641000Y-60213001D01*
G75*
G02*
X31391001Y-60463000I-249999J0D01*
G01*
X30740999Y-60463000D01*
G75*
G02*
X30491000Y-60213001I0J249999D01*
G01*
X30491000Y-58912999D01*
G75*
G02*
X30740999Y-58663000I249999J0D01*
G01*
X31391001Y-58663000D01*
G75*
G02*
X31641000Y-58912999I0J-249999D01*
G01*
G37*
G36*
G01*
X42402999Y-73036000D02*
X43703001Y-73036000D01*
G75*
G02*
X43953000Y-73285999I0J-249999D01*
G01*
X43953000Y-73936001D01*
G75*
G02*
X43703001Y-74186000I-249999J0D01*
G01*
X42402999Y-74186000D01*
G75*
G02*
X42153000Y-73936001I0J249999D01*
G01*
X42153000Y-73285999D01*
G75*
G02*
X42402999Y-73036000I249999J0D01*
G01*
G37*
G36*
G01*
X42402999Y-70086000D02*
X43703001Y-70086000D01*
G75*
G02*
X43953000Y-70335999I0J-249999D01*
G01*
X43953000Y-70986001D01*
G75*
G02*
X43703001Y-71236000I-249999J0D01*
G01*
X42402999Y-71236000D01*
G75*
G02*
X42153000Y-70986001I0J249999D01*
G01*
X42153000Y-70335999D01*
G75*
G02*
X42402999Y-70086000I249999J0D01*
G01*
G37*
G36*
G01*
X24976250Y-63611999D02*
X24976250Y-64912001D01*
G75*
G02*
X24726251Y-65162000I-249999J0D01*
G01*
X24076249Y-65162000D01*
G75*
G02*
X23826250Y-64912001I0J249999D01*
G01*
X23826250Y-63611999D01*
G75*
G02*
X24076249Y-63362000I249999J0D01*
G01*
X24726251Y-63362000D01*
G75*
G02*
X24976250Y-63611999I0J-249999D01*
G01*
G37*
G36*
G01*
X27926250Y-63611999D02*
X27926250Y-64912001D01*
G75*
G02*
X27676251Y-65162000I-249999J0D01*
G01*
X27026249Y-65162000D01*
G75*
G02*
X26776250Y-64912001I0J249999D01*
G01*
X26776250Y-63611999D01*
G75*
G02*
X27026249Y-63362000I249999J0D01*
G01*
X27676251Y-63362000D01*
G75*
G02*
X27926250Y-63611999I0J-249999D01*
G01*
G37*
G36*
G01*
X40397000Y-60086001D02*
X40397000Y-58785999D01*
G75*
G02*
X40646999Y-58536000I249999J0D01*
G01*
X41297001Y-58536000D01*
G75*
G02*
X41547000Y-58785999I0J-249999D01*
G01*
X41547000Y-60086001D01*
G75*
G02*
X41297001Y-60336000I-249999J0D01*
G01*
X40646999Y-60336000D01*
G75*
G02*
X40397000Y-60086001I0J249999D01*
G01*
G37*
G36*
G01*
X37447000Y-60086001D02*
X37447000Y-58785999D01*
G75*
G02*
X37696999Y-58536000I249999J0D01*
G01*
X38347001Y-58536000D01*
G75*
G02*
X38597000Y-58785999I0J-249999D01*
G01*
X38597000Y-60086001D01*
G75*
G02*
X38347001Y-60336000I-249999J0D01*
G01*
X37696999Y-60336000D01*
G75*
G02*
X37447000Y-60086001I0J249999D01*
G01*
G37*
M02*
