M48
; DRILL file {KiCad (5.1.7)-1} date 11/03/20 00:38:07
; FORMAT={-:-/ absolute / inch / decimal}
; #@! TF.CreationDate,2020-11-03T00:38:07-05:00
; #@! TF.GenerationSoftware,Kicad,Pcbnew,(5.1.7)-1
; #@! TF.FileFunction,Plated,1,2,PTH
FMAT,2
INCH
T1C0.0157
T2C0.0276
T3C0.0579
%
G90
G05
T1
X0.915Y-2.655
X0.93Y-3.165
X0.96Y-2.465
X1.105Y-2.405
X1.21Y-2.625
X1.265Y-2.485
X1.28Y-1.98
X1.32Y-2.825
X1.495Y-2.485
X1.6Y-2.895
X1.66Y-2.34
X1.67Y-2.59
X1.67Y-2.69
X1.7Y-2.655
X2.7875Y-2.6525
T3
X2.7875Y-2.8375
X2.8391Y-2.78
X3.0359Y-2.7603
X3.0375Y-2.7375
X2.7875Y-2.0875
X2.8391Y-2.03
X3.0359Y-2.0103
X3.0375Y-1.9875
X2.0375Y-2.0875
X2.0891Y-2.03
X2.2859Y-2.0103
X2.2875Y-1.9875
X2.0375Y-2.8375
X2.0891Y-2.78
X2.2859Y-2.7603
X2.2875Y-2.7375
T2
G00X1.2Y-1.8514
M15
G01X1.2Y-1.8986
M16
G05
G00X1.2Y-2.0285
M15
G01X1.2Y-2.0758
M16
G05
G00X1.4875Y-1.8514
M15
G01X1.4875Y-1.8986
M16
G05
G00X1.4875Y-2.0285
M15
G01X1.4875Y-2.0758
M16
G05
T0
M30
