G04 #@! TF.GenerationSoftware,KiCad,Pcbnew,(5.1.7)-1*
G04 #@! TF.CreationDate,2020-11-03T00:38:03-05:00*
G04 #@! TF.ProjectId,keyboard_test,6b657962-6f61-4726-945f-746573742e6b,rev?*
G04 #@! TF.SameCoordinates,Original*
G04 #@! TF.FileFunction,Soldermask,Top*
G04 #@! TF.FilePolarity,Negative*
%FSLAX46Y46*%
G04 Gerber Fmt 4.6, Leading zero omitted, Abs format (unit mm)*
G04 Created by KiCad (PCBNEW (5.1.7)-1) date 2020-11-03 00:38:03*
%MOMM*%
%LPD*%
G01*
G04 APERTURE LIST*
%ADD10C,0.100000*%
%ADD11R,2.100000X1.800000*%
%ADD12O,1.700000X2.700000*%
%ADD13R,0.500000X2.250000*%
%ADD14R,0.550000X1.500000*%
%ADD15R,1.500000X0.550000*%
%ADD16R,1.100000X1.800000*%
%ADD17C,1.750000*%
%ADD18C,3.987800*%
G04 APERTURE END LIST*
D10*
G36*
X27781250Y-57150000D02*
G01*
X26193750Y-57150000D01*
X27781250Y-55562500D01*
X27781250Y-57150000D01*
G37*
X27781250Y-57150000D02*
X26193750Y-57150000D01*
X27781250Y-55562500D01*
X27781250Y-57150000D01*
G36*
X24606250Y-49212500D02*
G01*
X24606250Y-47625000D01*
X26193750Y-47625000D01*
X24606250Y-49212500D01*
G37*
X24606250Y-49212500D02*
X24606250Y-47625000D01*
X26193750Y-47625000D01*
X24606250Y-49212500D01*
G36*
X26193750Y-53975000D02*
G01*
X24606250Y-55562500D01*
X24606250Y-52387500D01*
X26193750Y-53975000D01*
G37*
X26193750Y-53975000D02*
X24606250Y-55562500D01*
X24606250Y-52387500D01*
X26193750Y-53975000D01*
G36*
X27781250Y-52387500D02*
G01*
X26193750Y-50800000D01*
X27781250Y-49212500D01*
X27781250Y-52387500D01*
G37*
X27781250Y-52387500D02*
X26193750Y-50800000D01*
X27781250Y-49212500D01*
X27781250Y-52387500D01*
D11*
X36279750Y-78747000D03*
X33379750Y-78747000D03*
X33379750Y-76447000D03*
X36279750Y-76447000D03*
D12*
X37781250Y-47625000D03*
X30481250Y-47625000D03*
X30481250Y-52125000D03*
X37781250Y-52125000D03*
D13*
X35731250Y-52125000D03*
X34931250Y-52125000D03*
X34131250Y-52125000D03*
X33331250Y-52125000D03*
X32531250Y-52125000D03*
D14*
X31020250Y-61737000D03*
X31820250Y-61737000D03*
X32620250Y-61737000D03*
X33420250Y-61737000D03*
X34220250Y-61737000D03*
X35020250Y-61737000D03*
X35820250Y-61737000D03*
X36620250Y-61737000D03*
X37420250Y-61737000D03*
X38220250Y-61737000D03*
X39020250Y-61737000D03*
D15*
X40720250Y-63437000D03*
X40720250Y-64237000D03*
X40720250Y-65037000D03*
X40720250Y-65837000D03*
X40720250Y-66637000D03*
X40720250Y-67437000D03*
X40720250Y-68237000D03*
X40720250Y-69037000D03*
X40720250Y-69837000D03*
X40720250Y-70637000D03*
X40720250Y-71437000D03*
D14*
X39020250Y-73137000D03*
X38220250Y-73137000D03*
X37420250Y-73137000D03*
X36620250Y-73137000D03*
X35820250Y-73137000D03*
X35020250Y-73137000D03*
X34220250Y-73137000D03*
X33420250Y-73137000D03*
X32620250Y-73137000D03*
X31820250Y-73137000D03*
X31020250Y-73137000D03*
D15*
X29320250Y-71437000D03*
X29320250Y-70637000D03*
X29320250Y-69837000D03*
X29320250Y-69037000D03*
X29320250Y-68237000D03*
X29320250Y-67437000D03*
X29320250Y-66637000D03*
X29320250Y-65837000D03*
X29320250Y-65037000D03*
X29320250Y-64237000D03*
X29320250Y-63437000D03*
D16*
X23677000Y-72719000D03*
X27377000Y-78919000D03*
X27377000Y-72719000D03*
X23677000Y-78919000D03*
G36*
G01*
X43678002Y-61076000D02*
X42427998Y-61076000D01*
G75*
G02*
X42178000Y-60826002I0J249998D01*
G01*
X42178000Y-60200998D01*
G75*
G02*
X42427998Y-59951000I249998J0D01*
G01*
X43678002Y-59951000D01*
G75*
G02*
X43928000Y-60200998I0J-249998D01*
G01*
X43928000Y-60826002D01*
G75*
G02*
X43678002Y-61076000I-249998J0D01*
G01*
G37*
G36*
G01*
X43678002Y-64001000D02*
X42427998Y-64001000D01*
G75*
G02*
X42178000Y-63751002I0J249998D01*
G01*
X42178000Y-63125998D01*
G75*
G02*
X42427998Y-62876000I249998J0D01*
G01*
X43678002Y-62876000D01*
G75*
G02*
X43928000Y-63125998I0J-249998D01*
G01*
X43928000Y-63751002D01*
G75*
G02*
X43678002Y-64001000I-249998J0D01*
G01*
G37*
G36*
G01*
X35061998Y-56780000D02*
X36312002Y-56780000D01*
G75*
G02*
X36562000Y-57029998I0J-249998D01*
G01*
X36562000Y-57655002D01*
G75*
G02*
X36312002Y-57905000I-249998J0D01*
G01*
X35061998Y-57905000D01*
G75*
G02*
X34812000Y-57655002I0J249998D01*
G01*
X34812000Y-57029998D01*
G75*
G02*
X35061998Y-56780000I249998J0D01*
G01*
G37*
G36*
G01*
X35061998Y-53855000D02*
X36312002Y-53855000D01*
G75*
G02*
X36562000Y-54104998I0J-249998D01*
G01*
X36562000Y-54730002D01*
G75*
G02*
X36312002Y-54980000I-249998J0D01*
G01*
X35061998Y-54980000D01*
G75*
G02*
X34812000Y-54730002I0J249998D01*
G01*
X34812000Y-54104998D01*
G75*
G02*
X35061998Y-53855000I249998J0D01*
G01*
G37*
G36*
G01*
X34026002Y-54980000D02*
X32775998Y-54980000D01*
G75*
G02*
X32526000Y-54730002I0J249998D01*
G01*
X32526000Y-54104998D01*
G75*
G02*
X32775998Y-53855000I249998J0D01*
G01*
X34026002Y-53855000D01*
G75*
G02*
X34276000Y-54104998I0J-249998D01*
G01*
X34276000Y-54730002D01*
G75*
G02*
X34026002Y-54980000I-249998J0D01*
G01*
G37*
G36*
G01*
X34026002Y-57905000D02*
X32775998Y-57905000D01*
G75*
G02*
X32526000Y-57655002I0J249998D01*
G01*
X32526000Y-57029998D01*
G75*
G02*
X32775998Y-56780000I249998J0D01*
G01*
X34026002Y-56780000D01*
G75*
G02*
X34276000Y-57029998I0J-249998D01*
G01*
X34276000Y-57655002D01*
G75*
G02*
X34026002Y-57905000I-249998J0D01*
G01*
G37*
G36*
G01*
X26808000Y-70602002D02*
X26808000Y-69351998D01*
G75*
G02*
X27057998Y-69102000I249998J0D01*
G01*
X27683002Y-69102000D01*
G75*
G02*
X27933000Y-69351998I0J-249998D01*
G01*
X27933000Y-70602002D01*
G75*
G02*
X27683002Y-70852000I-249998J0D01*
G01*
X27057998Y-70852000D01*
G75*
G02*
X26808000Y-70602002I0J249998D01*
G01*
G37*
G36*
G01*
X23883000Y-70602002D02*
X23883000Y-69351998D01*
G75*
G02*
X24132998Y-69102000I249998J0D01*
G01*
X24758002Y-69102000D01*
G75*
G02*
X25008000Y-69351998I0J-249998D01*
G01*
X25008000Y-70602002D01*
G75*
G02*
X24758002Y-70852000I-249998J0D01*
G01*
X24132998Y-70852000D01*
G75*
G02*
X23883000Y-70602002I0J249998D01*
G01*
G37*
D17*
X79692500Y-74612500D03*
X69532500Y-74612500D03*
D18*
X74612500Y-74612500D03*
D17*
X60642500Y-74612500D03*
X50482500Y-74612500D03*
D18*
X55562500Y-74612500D03*
D17*
X79692500Y-55562500D03*
X69532500Y-55562500D03*
D18*
X74612500Y-55562500D03*
D17*
X60642500Y-55562500D03*
X50482500Y-55562500D03*
D18*
X55562500Y-55562500D03*
G36*
G01*
X38598000Y-55105000D02*
X37348000Y-55105000D01*
G75*
G02*
X37098000Y-54855000I0J250000D01*
G01*
X37098000Y-54105000D01*
G75*
G02*
X37348000Y-53855000I250000J0D01*
G01*
X38598000Y-53855000D01*
G75*
G02*
X38848000Y-54105000I0J-250000D01*
G01*
X38848000Y-54855000D01*
G75*
G02*
X38598000Y-55105000I-250000J0D01*
G01*
G37*
G36*
G01*
X38598000Y-57905000D02*
X37348000Y-57905000D01*
G75*
G02*
X37098000Y-57655000I0J250000D01*
G01*
X37098000Y-56905000D01*
G75*
G02*
X37348000Y-56655000I250000J0D01*
G01*
X38598000Y-56655000D01*
G75*
G02*
X38848000Y-56905000I0J-250000D01*
G01*
X38848000Y-57655000D01*
G75*
G02*
X38598000Y-57905000I-250000J0D01*
G01*
G37*
G36*
G01*
X24976250Y-66786999D02*
X24976250Y-68087001D01*
G75*
G02*
X24726251Y-68337000I-249999J0D01*
G01*
X24076249Y-68337000D01*
G75*
G02*
X23826250Y-68087001I0J249999D01*
G01*
X23826250Y-66786999D01*
G75*
G02*
X24076249Y-66537000I249999J0D01*
G01*
X24726251Y-66537000D01*
G75*
G02*
X24976250Y-66786999I0J-249999D01*
G01*
G37*
G36*
G01*
X27926250Y-66786999D02*
X27926250Y-68087001D01*
G75*
G02*
X27676251Y-68337000I-249999J0D01*
G01*
X27026249Y-68337000D01*
G75*
G02*
X26776250Y-68087001I0J249999D01*
G01*
X26776250Y-66786999D01*
G75*
G02*
X27026249Y-66537000I249999J0D01*
G01*
X27676251Y-66537000D01*
G75*
G02*
X27926250Y-66786999I0J-249999D01*
G01*
G37*
G36*
G01*
X31161751Y-76697000D02*
X29861749Y-76697000D01*
G75*
G02*
X29611750Y-76447001I0J249999D01*
G01*
X29611750Y-75796999D01*
G75*
G02*
X29861749Y-75547000I249999J0D01*
G01*
X31161751Y-75547000D01*
G75*
G02*
X31411750Y-75796999I0J-249999D01*
G01*
X31411750Y-76447001D01*
G75*
G02*
X31161751Y-76697000I-249999J0D01*
G01*
G37*
G36*
G01*
X31161751Y-79647000D02*
X29861749Y-79647000D01*
G75*
G02*
X29611750Y-79397001I0J249999D01*
G01*
X29611750Y-78746999D01*
G75*
G02*
X29861749Y-78497000I249999J0D01*
G01*
X31161751Y-78497000D01*
G75*
G02*
X31411750Y-78746999I0J-249999D01*
G01*
X31411750Y-79397001D01*
G75*
G02*
X31161751Y-79647000I-249999J0D01*
G01*
G37*
G36*
G01*
X38497749Y-78497000D02*
X39797751Y-78497000D01*
G75*
G02*
X40047750Y-78746999I0J-249999D01*
G01*
X40047750Y-79397001D01*
G75*
G02*
X39797751Y-79647000I-249999J0D01*
G01*
X38497749Y-79647000D01*
G75*
G02*
X38247750Y-79397001I0J249999D01*
G01*
X38247750Y-78746999D01*
G75*
G02*
X38497749Y-78497000I249999J0D01*
G01*
G37*
G36*
G01*
X38497749Y-75547000D02*
X39797751Y-75547000D01*
G75*
G02*
X40047750Y-75796999I0J-249999D01*
G01*
X40047750Y-76447001D01*
G75*
G02*
X39797751Y-76697000I-249999J0D01*
G01*
X38497749Y-76697000D01*
G75*
G02*
X38247750Y-76447001I0J249999D01*
G01*
X38247750Y-75796999D01*
G75*
G02*
X38497749Y-75547000I249999J0D01*
G01*
G37*
G36*
G01*
X28691000Y-58912999D02*
X28691000Y-60213001D01*
G75*
G02*
X28441001Y-60463000I-249999J0D01*
G01*
X27790999Y-60463000D01*
G75*
G02*
X27541000Y-60213001I0J249999D01*
G01*
X27541000Y-58912999D01*
G75*
G02*
X27790999Y-58663000I249999J0D01*
G01*
X28441001Y-58663000D01*
G75*
G02*
X28691000Y-58912999I0J-249999D01*
G01*
G37*
G36*
G01*
X31641000Y-58912999D02*
X31641000Y-60213001D01*
G75*
G02*
X31391001Y-60463000I-249999J0D01*
G01*
X30740999Y-60463000D01*
G75*
G02*
X30491000Y-60213001I0J249999D01*
G01*
X30491000Y-58912999D01*
G75*
G02*
X30740999Y-58663000I249999J0D01*
G01*
X31391001Y-58663000D01*
G75*
G02*
X31641000Y-58912999I0J-249999D01*
G01*
G37*
G36*
G01*
X42402999Y-73036000D02*
X43703001Y-73036000D01*
G75*
G02*
X43953000Y-73285999I0J-249999D01*
G01*
X43953000Y-73936001D01*
G75*
G02*
X43703001Y-74186000I-249999J0D01*
G01*
X42402999Y-74186000D01*
G75*
G02*
X42153000Y-73936001I0J249999D01*
G01*
X42153000Y-73285999D01*
G75*
G02*
X42402999Y-73036000I249999J0D01*
G01*
G37*
G36*
G01*
X42402999Y-70086000D02*
X43703001Y-70086000D01*
G75*
G02*
X43953000Y-70335999I0J-249999D01*
G01*
X43953000Y-70986001D01*
G75*
G02*
X43703001Y-71236000I-249999J0D01*
G01*
X42402999Y-71236000D01*
G75*
G02*
X42153000Y-70986001I0J249999D01*
G01*
X42153000Y-70335999D01*
G75*
G02*
X42402999Y-70086000I249999J0D01*
G01*
G37*
G36*
G01*
X24976250Y-63611999D02*
X24976250Y-64912001D01*
G75*
G02*
X24726251Y-65162000I-249999J0D01*
G01*
X24076249Y-65162000D01*
G75*
G02*
X23826250Y-64912001I0J249999D01*
G01*
X23826250Y-63611999D01*
G75*
G02*
X24076249Y-63362000I249999J0D01*
G01*
X24726251Y-63362000D01*
G75*
G02*
X24976250Y-63611999I0J-249999D01*
G01*
G37*
G36*
G01*
X27926250Y-63611999D02*
X27926250Y-64912001D01*
G75*
G02*
X27676251Y-65162000I-249999J0D01*
G01*
X27026249Y-65162000D01*
G75*
G02*
X26776250Y-64912001I0J249999D01*
G01*
X26776250Y-63611999D01*
G75*
G02*
X27026249Y-63362000I249999J0D01*
G01*
X27676251Y-63362000D01*
G75*
G02*
X27926250Y-63611999I0J-249999D01*
G01*
G37*
G36*
G01*
X40397000Y-60086001D02*
X40397000Y-58785999D01*
G75*
G02*
X40646999Y-58536000I249999J0D01*
G01*
X41297001Y-58536000D01*
G75*
G02*
X41547000Y-58785999I0J-249999D01*
G01*
X41547000Y-60086001D01*
G75*
G02*
X41297001Y-60336000I-249999J0D01*
G01*
X40646999Y-60336000D01*
G75*
G02*
X40397000Y-60086001I0J249999D01*
G01*
G37*
G36*
G01*
X37447000Y-60086001D02*
X37447000Y-58785999D01*
G75*
G02*
X37696999Y-58536000I249999J0D01*
G01*
X38347001Y-58536000D01*
G75*
G02*
X38597000Y-58785999I0J-249999D01*
G01*
X38597000Y-60086001D01*
G75*
G02*
X38347001Y-60336000I-249999J0D01*
G01*
X37696999Y-60336000D01*
G75*
G02*
X37447000Y-60086001I0J249999D01*
G01*
G37*
M02*
