G04 #@! TF.GenerationSoftware,KiCad,Pcbnew,(5.1.7)-1*
G04 #@! TF.CreationDate,2020-11-03T00:38:03-05:00*
G04 #@! TF.ProjectId,keyboard_test,6b657962-6f61-4726-945f-746573742e6b,rev?*
G04 #@! TF.SameCoordinates,Original*
G04 #@! TF.FileFunction,Copper,L2,Bot*
G04 #@! TF.FilePolarity,Positive*
%FSLAX46Y46*%
G04 Gerber Fmt 4.6, Leading zero omitted, Abs format (unit mm)*
G04 Created by KiCad (PCBNEW (5.1.7)-1) date 2020-11-03 00:38:03*
%MOMM*%
%LPD*%
G01*
G04 APERTURE LIST*
G04 #@! TA.AperFunction,ComponentPad*
%ADD10O,1.700000X2.700000*%
G04 #@! TD*
G04 #@! TA.AperFunction,ComponentPad*
%ADD11C,2.250000*%
G04 #@! TD*
G04 #@! TA.AperFunction,SMDPad,CuDef*
%ADD12R,1.200000X0.900000*%
G04 #@! TD*
G04 #@! TA.AperFunction,ViaPad*
%ADD13C,0.800000*%
G04 #@! TD*
G04 #@! TA.AperFunction,Conductor*
%ADD14C,0.254000*%
G04 #@! TD*
G04 #@! TA.AperFunction,Conductor*
%ADD15C,0.100000*%
G04 #@! TD*
G04 APERTURE END LIST*
D10*
X37781250Y-47625000D03*
X30481250Y-47625000D03*
X30481250Y-52125000D03*
X37781250Y-52125000D03*
D11*
X72112500Y-70612500D03*
G04 #@! TA.AperFunction,ComponentPad*
G36*
G01*
X70051188Y-72909850D02*
X70051183Y-72909845D01*
G75*
G02*
X69965155Y-71321183I751317J837345D01*
G01*
X71275157Y-69861183D01*
G75*
G02*
X72863819Y-69775155I837345J-751317D01*
G01*
X72863819Y-69775155D01*
G75*
G02*
X72949847Y-71363817I-751317J-837345D01*
G01*
X71639845Y-72823817D01*
G75*
G02*
X70051183Y-72909845I-837345J751317D01*
G01*
G37*
G04 #@! TD.AperFunction*
X77152500Y-69532500D03*
G04 #@! TA.AperFunction,ComponentPad*
G36*
G01*
X77035983Y-71234895D02*
X77035097Y-71234834D01*
G75*
G02*
X75990166Y-70035097I77403J1122334D01*
G01*
X76030166Y-69455097D01*
G75*
G02*
X77229903Y-68410166I1122334J-77403D01*
G01*
X77229903Y-68410166D01*
G75*
G02*
X78274834Y-69609903I-77403J-1122334D01*
G01*
X78234834Y-70189903D01*
G75*
G02*
X77035097Y-71234834I-1122334J77403D01*
G01*
G37*
G04 #@! TD.AperFunction*
X53062500Y-70612500D03*
G04 #@! TA.AperFunction,ComponentPad*
G36*
G01*
X51001188Y-72909850D02*
X51001183Y-72909845D01*
G75*
G02*
X50915155Y-71321183I751317J837345D01*
G01*
X52225157Y-69861183D01*
G75*
G02*
X53813819Y-69775155I837345J-751317D01*
G01*
X53813819Y-69775155D01*
G75*
G02*
X53899847Y-71363817I-751317J-837345D01*
G01*
X52589845Y-72823817D01*
G75*
G02*
X51001183Y-72909845I-837345J751317D01*
G01*
G37*
G04 #@! TD.AperFunction*
X58102500Y-69532500D03*
G04 #@! TA.AperFunction,ComponentPad*
G36*
G01*
X57985983Y-71234895D02*
X57985097Y-71234834D01*
G75*
G02*
X56940166Y-70035097I77403J1122334D01*
G01*
X56980166Y-69455097D01*
G75*
G02*
X58179903Y-68410166I1122334J-77403D01*
G01*
X58179903Y-68410166D01*
G75*
G02*
X59224834Y-69609903I-77403J-1122334D01*
G01*
X59184834Y-70189903D01*
G75*
G02*
X57985097Y-71234834I-1122334J77403D01*
G01*
G37*
G04 #@! TD.AperFunction*
X72112500Y-51562500D03*
G04 #@! TA.AperFunction,ComponentPad*
G36*
G01*
X70051188Y-53859850D02*
X70051183Y-53859845D01*
G75*
G02*
X69965155Y-52271183I751317J837345D01*
G01*
X71275157Y-50811183D01*
G75*
G02*
X72863819Y-50725155I837345J-751317D01*
G01*
X72863819Y-50725155D01*
G75*
G02*
X72949847Y-52313817I-751317J-837345D01*
G01*
X71639845Y-53773817D01*
G75*
G02*
X70051183Y-53859845I-837345J751317D01*
G01*
G37*
G04 #@! TD.AperFunction*
X77152500Y-50482500D03*
G04 #@! TA.AperFunction,ComponentPad*
G36*
G01*
X77035983Y-52184895D02*
X77035097Y-52184834D01*
G75*
G02*
X75990166Y-50985097I77403J1122334D01*
G01*
X76030166Y-50405097D01*
G75*
G02*
X77229903Y-49360166I1122334J-77403D01*
G01*
X77229903Y-49360166D01*
G75*
G02*
X78274834Y-50559903I-77403J-1122334D01*
G01*
X78234834Y-51139903D01*
G75*
G02*
X77035097Y-52184834I-1122334J77403D01*
G01*
G37*
G04 #@! TD.AperFunction*
X53062500Y-51562500D03*
G04 #@! TA.AperFunction,ComponentPad*
G36*
G01*
X51001188Y-53859850D02*
X51001183Y-53859845D01*
G75*
G02*
X50915155Y-52271183I751317J837345D01*
G01*
X52225157Y-50811183D01*
G75*
G02*
X53813819Y-50725155I837345J-751317D01*
G01*
X53813819Y-50725155D01*
G75*
G02*
X53899847Y-52313817I-751317J-837345D01*
G01*
X52589845Y-53773817D01*
G75*
G02*
X51001183Y-53859845I-837345J751317D01*
G01*
G37*
G04 #@! TD.AperFunction*
X58102500Y-50482500D03*
G04 #@! TA.AperFunction,ComponentPad*
G36*
G01*
X57985983Y-52184895D02*
X57985097Y-52184834D01*
G75*
G02*
X56940166Y-50985097I77403J1122334D01*
G01*
X56980166Y-50405097D01*
G75*
G02*
X58179903Y-49360166I1122334J-77403D01*
G01*
X58179903Y-49360166D01*
G75*
G02*
X59224834Y-50559903I-77403J-1122334D01*
G01*
X59184834Y-51139903D01*
G75*
G02*
X57985097Y-52184834I-1122334J77403D01*
G01*
G37*
G04 #@! TD.AperFunction*
D12*
X82550000Y-70581250D03*
X82550000Y-73881250D03*
X63500000Y-70581250D03*
X63500000Y-73881250D03*
X82550000Y-51531250D03*
X82550000Y-54831250D03*
X63500000Y-51531250D03*
X63500000Y-54831250D03*
D13*
X24384000Y-62611000D03*
X28067000Y-61087000D03*
X32512000Y-50292000D03*
X37973000Y-63119000D03*
X32131000Y-63119000D03*
X42164000Y-59436000D03*
X40640000Y-73533000D03*
X23622000Y-80391000D03*
X30734000Y-66675000D03*
X33528000Y-71755000D03*
X23241000Y-67437000D03*
X42418000Y-65786000D03*
X42418000Y-68326000D03*
X43180000Y-67437000D03*
X70802500Y-67373500D03*
D14*
X58531250Y-51531250D02*
X58062500Y-51062500D01*
X63500000Y-51531250D02*
X58531250Y-51531250D01*
X66552151Y-57883401D02*
X63500000Y-54831250D01*
X79150561Y-57883401D02*
X66552151Y-57883401D01*
X82202712Y-54831250D02*
X79150561Y-57883401D01*
X82550000Y-54831250D02*
X82202712Y-54831250D01*
X52545250Y-65786000D02*
X63500000Y-54831250D01*
X42418000Y-65786000D02*
X52545250Y-65786000D01*
X77581250Y-51531250D02*
X77112500Y-51062500D01*
X82550000Y-51531250D02*
X77581250Y-51531250D01*
X58531250Y-70581250D02*
X58062500Y-70112500D01*
X63500000Y-70581250D02*
X58531250Y-70581250D01*
X66552151Y-76933401D02*
X63500000Y-73881250D01*
X79150561Y-76933401D02*
X66552151Y-76933401D01*
X82202712Y-73881250D02*
X79150561Y-76933401D01*
X82550000Y-73881250D02*
X82202712Y-73881250D01*
X51024439Y-76933401D02*
X49276000Y-75184962D01*
X60447849Y-76933401D02*
X51024439Y-76933401D01*
X63500000Y-73881250D02*
X60447849Y-76933401D01*
X49276000Y-75184000D02*
X42418000Y-68326000D01*
X49276000Y-75184962D02*
X49276000Y-75184000D01*
X77581250Y-70581250D02*
X77112500Y-70112500D01*
X82550000Y-70581250D02*
X77581250Y-70581250D01*
X70739000Y-67437000D02*
X70802500Y-67373500D01*
X43180000Y-67437000D02*
X70739000Y-67437000D01*
X28996250Y-46998000D02*
X28996250Y-47498000D01*
X30354250Y-47498000D01*
X30354250Y-47478000D01*
X30608250Y-47478000D01*
X30608250Y-47498000D01*
X31966250Y-47498000D01*
X31966250Y-46998000D01*
X31958873Y-46958250D01*
X36303627Y-46958250D01*
X36296250Y-46998000D01*
X36296250Y-47498000D01*
X37654250Y-47498000D01*
X37654250Y-47478000D01*
X37908250Y-47478000D01*
X37908250Y-47498000D01*
X39266250Y-47498000D01*
X39266250Y-46998000D01*
X39258873Y-46958250D01*
X45116750Y-46958250D01*
X45116750Y-65278000D01*
X43014501Y-65278000D01*
X42915859Y-65179358D01*
X42787942Y-65093887D01*
X42645809Y-65035013D01*
X42494922Y-65005000D01*
X42341078Y-65005000D01*
X42190191Y-65035013D01*
X42048058Y-65093887D01*
X41920141Y-65179358D01*
X41811358Y-65288141D01*
X41725887Y-65416058D01*
X41667013Y-65558191D01*
X41637000Y-65709078D01*
X41637000Y-65862922D01*
X41667013Y-66013809D01*
X41725887Y-66155942D01*
X41811358Y-66283859D01*
X41920141Y-66392642D01*
X42048058Y-66478113D01*
X42190191Y-66536987D01*
X42341078Y-66567000D01*
X42494922Y-66567000D01*
X42645809Y-66536987D01*
X42787942Y-66478113D01*
X42915859Y-66392642D01*
X43014501Y-66294000D01*
X45116750Y-66294000D01*
X45116750Y-66929000D01*
X43776501Y-66929000D01*
X43677859Y-66830358D01*
X43549942Y-66744887D01*
X43407809Y-66686013D01*
X43256922Y-66656000D01*
X43103078Y-66656000D01*
X42952191Y-66686013D01*
X42810058Y-66744887D01*
X42682141Y-66830358D01*
X42573358Y-66939141D01*
X42487887Y-67067058D01*
X42429013Y-67209191D01*
X42399000Y-67360078D01*
X42399000Y-67513922D01*
X42405182Y-67545000D01*
X42341078Y-67545000D01*
X42190191Y-67575013D01*
X42048058Y-67633887D01*
X41920141Y-67719358D01*
X41811358Y-67828141D01*
X41725887Y-67956058D01*
X41667013Y-68098191D01*
X41637000Y-68249078D01*
X41637000Y-68402922D01*
X41667013Y-68553809D01*
X41725887Y-68695942D01*
X41811358Y-68823859D01*
X41920141Y-68932642D01*
X42048058Y-69018113D01*
X42190191Y-69076987D01*
X42341078Y-69107000D01*
X42480580Y-69107000D01*
X45116750Y-71743170D01*
X45116750Y-83216750D01*
X23865106Y-83216750D01*
X22352000Y-81703644D01*
X22352000Y-52252000D01*
X28996250Y-52252000D01*
X28996250Y-52752000D01*
X29049560Y-53039269D01*
X29157889Y-53310618D01*
X29317074Y-53555619D01*
X29520998Y-53764857D01*
X29761824Y-53930291D01*
X30030297Y-54045563D01*
X30124360Y-54066476D01*
X30354250Y-53945155D01*
X30354250Y-52252000D01*
X30608250Y-52252000D01*
X30608250Y-53945155D01*
X30838140Y-54066476D01*
X30932203Y-54045563D01*
X31200676Y-53930291D01*
X31441502Y-53764857D01*
X31645426Y-53555619D01*
X31804611Y-53310618D01*
X31912940Y-53039269D01*
X31966250Y-52752000D01*
X31966250Y-52252000D01*
X36296250Y-52252000D01*
X36296250Y-52752000D01*
X36349560Y-53039269D01*
X36457889Y-53310618D01*
X36617074Y-53555619D01*
X36820998Y-53764857D01*
X37061824Y-53930291D01*
X37330297Y-54045563D01*
X37424360Y-54066476D01*
X37654250Y-53945155D01*
X37654250Y-52252000D01*
X37908250Y-52252000D01*
X37908250Y-53945155D01*
X38138140Y-54066476D01*
X38232203Y-54045563D01*
X38500676Y-53930291D01*
X38741502Y-53764857D01*
X38945426Y-53555619D01*
X39104611Y-53310618D01*
X39212940Y-53039269D01*
X39266250Y-52752000D01*
X39266250Y-52252000D01*
X37908250Y-52252000D01*
X37654250Y-52252000D01*
X36296250Y-52252000D01*
X31966250Y-52252000D01*
X30608250Y-52252000D01*
X30354250Y-52252000D01*
X28996250Y-52252000D01*
X22352000Y-52252000D01*
X22352000Y-51498000D01*
X28996250Y-51498000D01*
X28996250Y-51998000D01*
X30354250Y-51998000D01*
X30354250Y-50304845D01*
X30608250Y-50304845D01*
X30608250Y-51998000D01*
X31966250Y-51998000D01*
X31966250Y-51498000D01*
X36296250Y-51498000D01*
X36296250Y-51998000D01*
X37654250Y-51998000D01*
X37654250Y-50304845D01*
X37908250Y-50304845D01*
X37908250Y-51998000D01*
X39266250Y-51998000D01*
X39266250Y-51498000D01*
X39212940Y-51210731D01*
X39104611Y-50939382D01*
X38945426Y-50694381D01*
X38741502Y-50485143D01*
X38500676Y-50319709D01*
X38232203Y-50204437D01*
X38138140Y-50183524D01*
X37908250Y-50304845D01*
X37654250Y-50304845D01*
X37424360Y-50183524D01*
X37330297Y-50204437D01*
X37061824Y-50319709D01*
X36820998Y-50485143D01*
X36617074Y-50694381D01*
X36457889Y-50939382D01*
X36349560Y-51210731D01*
X36296250Y-51498000D01*
X31966250Y-51498000D01*
X31912940Y-51210731D01*
X31804611Y-50939382D01*
X31645426Y-50694381D01*
X31441502Y-50485143D01*
X31200676Y-50319709D01*
X30932203Y-50204437D01*
X30838140Y-50183524D01*
X30608250Y-50304845D01*
X30354250Y-50304845D01*
X30124360Y-50183524D01*
X30030297Y-50204437D01*
X29761824Y-50319709D01*
X29520998Y-50485143D01*
X29317074Y-50694381D01*
X29157889Y-50939382D01*
X29049560Y-51210731D01*
X28996250Y-51498000D01*
X22352000Y-51498000D01*
X22352000Y-48471356D01*
X23071356Y-47752000D01*
X28996250Y-47752000D01*
X28996250Y-48252000D01*
X29049560Y-48539269D01*
X29157889Y-48810618D01*
X29317074Y-49055619D01*
X29520998Y-49264857D01*
X29761824Y-49430291D01*
X30030297Y-49545563D01*
X30124360Y-49566476D01*
X30354250Y-49445155D01*
X30354250Y-47752000D01*
X30608250Y-47752000D01*
X30608250Y-49445155D01*
X30838140Y-49566476D01*
X30932203Y-49545563D01*
X31200676Y-49430291D01*
X31441502Y-49264857D01*
X31645426Y-49055619D01*
X31804611Y-48810618D01*
X31912940Y-48539269D01*
X31966250Y-48252000D01*
X31966250Y-47752000D01*
X36296250Y-47752000D01*
X36296250Y-48252000D01*
X36349560Y-48539269D01*
X36457889Y-48810618D01*
X36617074Y-49055619D01*
X36820998Y-49264857D01*
X37061824Y-49430291D01*
X37330297Y-49545563D01*
X37424360Y-49566476D01*
X37654250Y-49445155D01*
X37654250Y-47752000D01*
X37908250Y-47752000D01*
X37908250Y-49445155D01*
X38138140Y-49566476D01*
X38232203Y-49545563D01*
X38500676Y-49430291D01*
X38741502Y-49264857D01*
X38945426Y-49055619D01*
X39104611Y-48810618D01*
X39212940Y-48539269D01*
X39266250Y-48252000D01*
X39266250Y-47752000D01*
X37908250Y-47752000D01*
X37654250Y-47752000D01*
X36296250Y-47752000D01*
X31966250Y-47752000D01*
X30608250Y-47752000D01*
X30354250Y-47752000D01*
X28996250Y-47752000D01*
X23071356Y-47752000D01*
X23865106Y-46958250D01*
X29003627Y-46958250D01*
X28996250Y-46998000D01*
G04 #@! TA.AperFunction,Conductor*
D15*
G36*
X28996250Y-46998000D02*
G01*
X28996250Y-47498000D01*
X30354250Y-47498000D01*
X30354250Y-47478000D01*
X30608250Y-47478000D01*
X30608250Y-47498000D01*
X31966250Y-47498000D01*
X31966250Y-46998000D01*
X31958873Y-46958250D01*
X36303627Y-46958250D01*
X36296250Y-46998000D01*
X36296250Y-47498000D01*
X37654250Y-47498000D01*
X37654250Y-47478000D01*
X37908250Y-47478000D01*
X37908250Y-47498000D01*
X39266250Y-47498000D01*
X39266250Y-46998000D01*
X39258873Y-46958250D01*
X45116750Y-46958250D01*
X45116750Y-65278000D01*
X43014501Y-65278000D01*
X42915859Y-65179358D01*
X42787942Y-65093887D01*
X42645809Y-65035013D01*
X42494922Y-65005000D01*
X42341078Y-65005000D01*
X42190191Y-65035013D01*
X42048058Y-65093887D01*
X41920141Y-65179358D01*
X41811358Y-65288141D01*
X41725887Y-65416058D01*
X41667013Y-65558191D01*
X41637000Y-65709078D01*
X41637000Y-65862922D01*
X41667013Y-66013809D01*
X41725887Y-66155942D01*
X41811358Y-66283859D01*
X41920141Y-66392642D01*
X42048058Y-66478113D01*
X42190191Y-66536987D01*
X42341078Y-66567000D01*
X42494922Y-66567000D01*
X42645809Y-66536987D01*
X42787942Y-66478113D01*
X42915859Y-66392642D01*
X43014501Y-66294000D01*
X45116750Y-66294000D01*
X45116750Y-66929000D01*
X43776501Y-66929000D01*
X43677859Y-66830358D01*
X43549942Y-66744887D01*
X43407809Y-66686013D01*
X43256922Y-66656000D01*
X43103078Y-66656000D01*
X42952191Y-66686013D01*
X42810058Y-66744887D01*
X42682141Y-66830358D01*
X42573358Y-66939141D01*
X42487887Y-67067058D01*
X42429013Y-67209191D01*
X42399000Y-67360078D01*
X42399000Y-67513922D01*
X42405182Y-67545000D01*
X42341078Y-67545000D01*
X42190191Y-67575013D01*
X42048058Y-67633887D01*
X41920141Y-67719358D01*
X41811358Y-67828141D01*
X41725887Y-67956058D01*
X41667013Y-68098191D01*
X41637000Y-68249078D01*
X41637000Y-68402922D01*
X41667013Y-68553809D01*
X41725887Y-68695942D01*
X41811358Y-68823859D01*
X41920141Y-68932642D01*
X42048058Y-69018113D01*
X42190191Y-69076987D01*
X42341078Y-69107000D01*
X42480580Y-69107000D01*
X45116750Y-71743170D01*
X45116750Y-83216750D01*
X23865106Y-83216750D01*
X22352000Y-81703644D01*
X22352000Y-52252000D01*
X28996250Y-52252000D01*
X28996250Y-52752000D01*
X29049560Y-53039269D01*
X29157889Y-53310618D01*
X29317074Y-53555619D01*
X29520998Y-53764857D01*
X29761824Y-53930291D01*
X30030297Y-54045563D01*
X30124360Y-54066476D01*
X30354250Y-53945155D01*
X30354250Y-52252000D01*
X30608250Y-52252000D01*
X30608250Y-53945155D01*
X30838140Y-54066476D01*
X30932203Y-54045563D01*
X31200676Y-53930291D01*
X31441502Y-53764857D01*
X31645426Y-53555619D01*
X31804611Y-53310618D01*
X31912940Y-53039269D01*
X31966250Y-52752000D01*
X31966250Y-52252000D01*
X36296250Y-52252000D01*
X36296250Y-52752000D01*
X36349560Y-53039269D01*
X36457889Y-53310618D01*
X36617074Y-53555619D01*
X36820998Y-53764857D01*
X37061824Y-53930291D01*
X37330297Y-54045563D01*
X37424360Y-54066476D01*
X37654250Y-53945155D01*
X37654250Y-52252000D01*
X37908250Y-52252000D01*
X37908250Y-53945155D01*
X38138140Y-54066476D01*
X38232203Y-54045563D01*
X38500676Y-53930291D01*
X38741502Y-53764857D01*
X38945426Y-53555619D01*
X39104611Y-53310618D01*
X39212940Y-53039269D01*
X39266250Y-52752000D01*
X39266250Y-52252000D01*
X37908250Y-52252000D01*
X37654250Y-52252000D01*
X36296250Y-52252000D01*
X31966250Y-52252000D01*
X30608250Y-52252000D01*
X30354250Y-52252000D01*
X28996250Y-52252000D01*
X22352000Y-52252000D01*
X22352000Y-51498000D01*
X28996250Y-51498000D01*
X28996250Y-51998000D01*
X30354250Y-51998000D01*
X30354250Y-50304845D01*
X30608250Y-50304845D01*
X30608250Y-51998000D01*
X31966250Y-51998000D01*
X31966250Y-51498000D01*
X36296250Y-51498000D01*
X36296250Y-51998000D01*
X37654250Y-51998000D01*
X37654250Y-50304845D01*
X37908250Y-50304845D01*
X37908250Y-51998000D01*
X39266250Y-51998000D01*
X39266250Y-51498000D01*
X39212940Y-51210731D01*
X39104611Y-50939382D01*
X38945426Y-50694381D01*
X38741502Y-50485143D01*
X38500676Y-50319709D01*
X38232203Y-50204437D01*
X38138140Y-50183524D01*
X37908250Y-50304845D01*
X37654250Y-50304845D01*
X37424360Y-50183524D01*
X37330297Y-50204437D01*
X37061824Y-50319709D01*
X36820998Y-50485143D01*
X36617074Y-50694381D01*
X36457889Y-50939382D01*
X36349560Y-51210731D01*
X36296250Y-51498000D01*
X31966250Y-51498000D01*
X31912940Y-51210731D01*
X31804611Y-50939382D01*
X31645426Y-50694381D01*
X31441502Y-50485143D01*
X31200676Y-50319709D01*
X30932203Y-50204437D01*
X30838140Y-50183524D01*
X30608250Y-50304845D01*
X30354250Y-50304845D01*
X30124360Y-50183524D01*
X30030297Y-50204437D01*
X29761824Y-50319709D01*
X29520998Y-50485143D01*
X29317074Y-50694381D01*
X29157889Y-50939382D01*
X29049560Y-51210731D01*
X28996250Y-51498000D01*
X22352000Y-51498000D01*
X22352000Y-48471356D01*
X23071356Y-47752000D01*
X28996250Y-47752000D01*
X28996250Y-48252000D01*
X29049560Y-48539269D01*
X29157889Y-48810618D01*
X29317074Y-49055619D01*
X29520998Y-49264857D01*
X29761824Y-49430291D01*
X30030297Y-49545563D01*
X30124360Y-49566476D01*
X30354250Y-49445155D01*
X30354250Y-47752000D01*
X30608250Y-47752000D01*
X30608250Y-49445155D01*
X30838140Y-49566476D01*
X30932203Y-49545563D01*
X31200676Y-49430291D01*
X31441502Y-49264857D01*
X31645426Y-49055619D01*
X31804611Y-48810618D01*
X31912940Y-48539269D01*
X31966250Y-48252000D01*
X31966250Y-47752000D01*
X36296250Y-47752000D01*
X36296250Y-48252000D01*
X36349560Y-48539269D01*
X36457889Y-48810618D01*
X36617074Y-49055619D01*
X36820998Y-49264857D01*
X37061824Y-49430291D01*
X37330297Y-49545563D01*
X37424360Y-49566476D01*
X37654250Y-49445155D01*
X37654250Y-47752000D01*
X37908250Y-47752000D01*
X37908250Y-49445155D01*
X38138140Y-49566476D01*
X38232203Y-49545563D01*
X38500676Y-49430291D01*
X38741502Y-49264857D01*
X38945426Y-49055619D01*
X39104611Y-48810618D01*
X39212940Y-48539269D01*
X39266250Y-48252000D01*
X39266250Y-47752000D01*
X37908250Y-47752000D01*
X37654250Y-47752000D01*
X36296250Y-47752000D01*
X31966250Y-47752000D01*
X30608250Y-47752000D01*
X30354250Y-47752000D01*
X28996250Y-47752000D01*
X23071356Y-47752000D01*
X23865106Y-46958250D01*
X29003627Y-46958250D01*
X28996250Y-46998000D01*
G37*
G04 #@! TD.AperFunction*
M02*
